<?xml version="1.0" encoding="utf-8" standalone="no"?>
<!DOCTYPE svg PUBLIC "-//W3C//DTD SVG 1.1//EN"
  "http://www.w3.org/Graphics/SVG/1.1/DTD/svg11.dtd">
<svg xmlns:xlink="http://www.w3.org/1999/xlink" width="1138.903125pt" height="571.078125pt" viewBox="0 0 1138.903125 571.078125" xmlns="http://www.w3.org/2000/svg" version="1.1">
 <metadata>
  <rdf:RDF xmlns:dc="http://purl.org/dc/elements/1.1/" xmlns:cc="http://creativecommons.org/ns#" xmlns:rdf="http://www.w3.org/1999/02/22-rdf-syntax-ns#">
   <cc:Work>
    <dc:type rdf:resource="http://purl.org/dc/dcmitype/StillImage"/>
    <dc:date>2024-01-05T10:28:52.518429</dc:date>
    <dc:format>image/svg+xml</dc:format>
    <dc:creator>
     <cc:Agent>
      <dc:title>Matplotlib v3.8.0, https://matplotlib.org/</dc:title>
     </cc:Agent>
    </dc:creator>
   </cc:Work>
  </rdf:RDF>
 </metadata>
 <defs>
  <style type="text/css">*{stroke-linejoin: round; stroke-linecap: butt}</style>
 </defs>
 <g id="figure_1">
  <g id="patch_1">
   <path d="M 0 571.078125 
L 1138.903125 571.078125 
L 1138.903125 0 
L 0 0 
z
" style="fill: #ffffff"/>
  </g>
  <g id="axes_1">
   <g id="patch_2">
    <path d="M 22.903125 554.4 
L 1138.903125 554.4 
L 1138.903125 0 
L 22.903125 0 
z
" style="fill: #ffffff"/>
   </g>
   <g id="matplotlib.axis_1">
    <g id="xtick_1">
     <g id="line2d_1">
      <defs>
       <path id="mfe4c9535a1" d="M 0 0 
L 0 3.5 
" style="stroke: #000000; stroke-width: 0.8"/>
      </defs>
      <g>
       <use xlink:href="#mfe4c9535a1" x="73.630398" y="554.4" style="stroke: #000000; stroke-width: 0.8"/>
      </g>
     </g>
     <g id="text_1">
      <!-- 0 -->
      <g transform="translate(70.449148 568.998438) scale(0.1 -0.1)">
       <defs>
        <path id="DejaVuSans-30" d="M 2034 4250 
Q 1547 4250 1301 3770 
Q 1056 3291 1056 2328 
Q 1056 1369 1301 889 
Q 1547 409 2034 409 
Q 2525 409 2770 889 
Q 3016 1369 3016 2328 
Q 3016 3291 2770 3770 
Q 2525 4250 2034 4250 
z
M 2034 4750 
Q 2819 4750 3233 4129 
Q 3647 3509 3647 2328 
Q 3647 1150 3233 529 
Q 2819 -91 2034 -91 
Q 1250 -91 836 529 
Q 422 1150 422 2328 
Q 422 3509 836 4129 
Q 1250 4750 2034 4750 
z
" transform="scale(0.015625)"/>
       </defs>
       <use xlink:href="#DejaVuSans-30"/>
      </g>
     </g>
    </g>
    <g id="xtick_2">
     <g id="line2d_2">
      <g>
       <use xlink:href="#mfe4c9535a1" x="209.293836" y="554.4" style="stroke: #000000; stroke-width: 0.8"/>
      </g>
     </g>
     <g id="text_2">
      <!-- 1000 -->
      <g transform="translate(196.568836 568.998438) scale(0.1 -0.1)">
       <defs>
        <path id="DejaVuSans-31" d="M 794 531 
L 1825 531 
L 1825 4091 
L 703 3866 
L 703 4441 
L 1819 4666 
L 2450 4666 
L 2450 531 
L 3481 531 
L 3481 0 
L 794 0 
L 794 531 
z
" transform="scale(0.015625)"/>
       </defs>
       <use xlink:href="#DejaVuSans-31"/>
       <use xlink:href="#DejaVuSans-30" x="63.623047"/>
       <use xlink:href="#DejaVuSans-30" x="127.246094"/>
       <use xlink:href="#DejaVuSans-30" x="190.869141"/>
      </g>
     </g>
    </g>
    <g id="xtick_3">
     <g id="line2d_3">
      <g>
       <use xlink:href="#mfe4c9535a1" x="344.957274" y="554.4" style="stroke: #000000; stroke-width: 0.8"/>
      </g>
     </g>
     <g id="text_3">
      <!-- 2000 -->
      <g transform="translate(332.232274 568.998438) scale(0.1 -0.1)">
       <defs>
        <path id="DejaVuSans-32" d="M 1228 531 
L 3431 531 
L 3431 0 
L 469 0 
L 469 531 
Q 828 903 1448 1529 
Q 2069 2156 2228 2338 
Q 2531 2678 2651 2914 
Q 2772 3150 2772 3378 
Q 2772 3750 2511 3984 
Q 2250 4219 1831 4219 
Q 1534 4219 1204 4116 
Q 875 4013 500 3803 
L 500 4441 
Q 881 4594 1212 4672 
Q 1544 4750 1819 4750 
Q 2544 4750 2975 4387 
Q 3406 4025 3406 3419 
Q 3406 3131 3298 2873 
Q 3191 2616 2906 2266 
Q 2828 2175 2409 1742 
Q 1991 1309 1228 531 
z
" transform="scale(0.015625)"/>
       </defs>
       <use xlink:href="#DejaVuSans-32"/>
       <use xlink:href="#DejaVuSans-30" x="63.623047"/>
       <use xlink:href="#DejaVuSans-30" x="127.246094"/>
       <use xlink:href="#DejaVuSans-30" x="190.869141"/>
      </g>
     </g>
    </g>
    <g id="xtick_4">
     <g id="line2d_4">
      <g>
       <use xlink:href="#mfe4c9535a1" x="480.620712" y="554.4" style="stroke: #000000; stroke-width: 0.8"/>
      </g>
     </g>
     <g id="text_4">
      <!-- 3000 -->
      <g transform="translate(467.895712 568.998438) scale(0.1 -0.1)">
       <defs>
        <path id="DejaVuSans-33" d="M 2597 2516 
Q 3050 2419 3304 2112 
Q 3559 1806 3559 1356 
Q 3559 666 3084 287 
Q 2609 -91 1734 -91 
Q 1441 -91 1130 -33 
Q 819 25 488 141 
L 488 750 
Q 750 597 1062 519 
Q 1375 441 1716 441 
Q 2309 441 2620 675 
Q 2931 909 2931 1356 
Q 2931 1769 2642 2001 
Q 2353 2234 1838 2234 
L 1294 2234 
L 1294 2753 
L 1863 2753 
Q 2328 2753 2575 2939 
Q 2822 3125 2822 3475 
Q 2822 3834 2567 4026 
Q 2313 4219 1838 4219 
Q 1578 4219 1281 4162 
Q 984 4106 628 3988 
L 628 4550 
Q 988 4650 1302 4700 
Q 1616 4750 1894 4750 
Q 2613 4750 3031 4423 
Q 3450 4097 3450 3541 
Q 3450 3153 3228 2886 
Q 3006 2619 2597 2516 
z
" transform="scale(0.015625)"/>
       </defs>
       <use xlink:href="#DejaVuSans-33"/>
       <use xlink:href="#DejaVuSans-30" x="63.623047"/>
       <use xlink:href="#DejaVuSans-30" x="127.246094"/>
       <use xlink:href="#DejaVuSans-30" x="190.869141"/>
      </g>
     </g>
    </g>
    <g id="xtick_5">
     <g id="line2d_5">
      <g>
       <use xlink:href="#mfe4c9535a1" x="616.28415" y="554.4" style="stroke: #000000; stroke-width: 0.8"/>
      </g>
     </g>
     <g id="text_5">
      <!-- 4000 -->
      <g transform="translate(603.55915 568.998438) scale(0.1 -0.1)">
       <defs>
        <path id="DejaVuSans-34" d="M 2419 4116 
L 825 1625 
L 2419 1625 
L 2419 4116 
z
M 2253 4666 
L 3047 4666 
L 3047 1625 
L 3713 1625 
L 3713 1100 
L 3047 1100 
L 3047 0 
L 2419 0 
L 2419 1100 
L 313 1100 
L 313 1709 
L 2253 4666 
z
" transform="scale(0.015625)"/>
       </defs>
       <use xlink:href="#DejaVuSans-34"/>
       <use xlink:href="#DejaVuSans-30" x="63.623047"/>
       <use xlink:href="#DejaVuSans-30" x="127.246094"/>
       <use xlink:href="#DejaVuSans-30" x="190.869141"/>
      </g>
     </g>
    </g>
    <g id="xtick_6">
     <g id="line2d_6">
      <g>
       <use xlink:href="#mfe4c9535a1" x="751.947588" y="554.4" style="stroke: #000000; stroke-width: 0.8"/>
      </g>
     </g>
     <g id="text_6">
      <!-- 5000 -->
      <g transform="translate(739.222588 568.998438) scale(0.1 -0.1)">
       <defs>
        <path id="DejaVuSans-35" d="M 691 4666 
L 3169 4666 
L 3169 4134 
L 1269 4134 
L 1269 2991 
Q 1406 3038 1543 3061 
Q 1681 3084 1819 3084 
Q 2600 3084 3056 2656 
Q 3513 2228 3513 1497 
Q 3513 744 3044 326 
Q 2575 -91 1722 -91 
Q 1428 -91 1123 -41 
Q 819 9 494 109 
L 494 744 
Q 775 591 1075 516 
Q 1375 441 1709 441 
Q 2250 441 2565 725 
Q 2881 1009 2881 1497 
Q 2881 1984 2565 2268 
Q 2250 2553 1709 2553 
Q 1456 2553 1204 2497 
Q 953 2441 691 2322 
L 691 4666 
z
" transform="scale(0.015625)"/>
       </defs>
       <use xlink:href="#DejaVuSans-35"/>
       <use xlink:href="#DejaVuSans-30" x="63.623047"/>
       <use xlink:href="#DejaVuSans-30" x="127.246094"/>
       <use xlink:href="#DejaVuSans-30" x="190.869141"/>
      </g>
     </g>
    </g>
    <g id="xtick_7">
     <g id="line2d_7">
      <g>
       <use xlink:href="#mfe4c9535a1" x="887.611026" y="554.4" style="stroke: #000000; stroke-width: 0.8"/>
      </g>
     </g>
     <g id="text_7">
      <!-- 6000 -->
      <g transform="translate(874.886026 568.998438) scale(0.1 -0.1)">
       <defs>
        <path id="DejaVuSans-36" d="M 2113 2584 
Q 1688 2584 1439 2293 
Q 1191 2003 1191 1497 
Q 1191 994 1439 701 
Q 1688 409 2113 409 
Q 2538 409 2786 701 
Q 3034 994 3034 1497 
Q 3034 2003 2786 2293 
Q 2538 2584 2113 2584 
z
M 3366 4563 
L 3366 3988 
Q 3128 4100 2886 4159 
Q 2644 4219 2406 4219 
Q 1781 4219 1451 3797 
Q 1122 3375 1075 2522 
Q 1259 2794 1537 2939 
Q 1816 3084 2150 3084 
Q 2853 3084 3261 2657 
Q 3669 2231 3669 1497 
Q 3669 778 3244 343 
Q 2819 -91 2113 -91 
Q 1303 -91 875 529 
Q 447 1150 447 2328 
Q 447 3434 972 4092 
Q 1497 4750 2381 4750 
Q 2619 4750 2861 4703 
Q 3103 4656 3366 4563 
z
" transform="scale(0.015625)"/>
       </defs>
       <use xlink:href="#DejaVuSans-36"/>
       <use xlink:href="#DejaVuSans-30" x="63.623047"/>
       <use xlink:href="#DejaVuSans-30" x="127.246094"/>
       <use xlink:href="#DejaVuSans-30" x="190.869141"/>
      </g>
     </g>
    </g>
    <g id="xtick_8">
     <g id="line2d_8">
      <g>
       <use xlink:href="#mfe4c9535a1" x="1023.274464" y="554.4" style="stroke: #000000; stroke-width: 0.8"/>
      </g>
     </g>
     <g id="text_8">
      <!-- 7000 -->
      <g transform="translate(1010.549464 568.998438) scale(0.1 -0.1)">
       <defs>
        <path id="DejaVuSans-37" d="M 525 4666 
L 3525 4666 
L 3525 4397 
L 1831 0 
L 1172 0 
L 2766 4134 
L 525 4134 
L 525 4666 
z
" transform="scale(0.015625)"/>
       </defs>
       <use xlink:href="#DejaVuSans-37"/>
       <use xlink:href="#DejaVuSans-30" x="63.623047"/>
       <use xlink:href="#DejaVuSans-30" x="127.246094"/>
       <use xlink:href="#DejaVuSans-30" x="190.869141"/>
      </g>
     </g>
    </g>
   </g>
   <g id="matplotlib.axis_2">
    <g id="ytick_1">
     <g id="line2d_9">
      <defs>
       <path id="m93bc3bc413" d="M 0 0 
L -3.5 0 
" style="stroke: #000000; stroke-width: 0.8"/>
      </defs>
      <g>
       <use xlink:href="#m93bc3bc413" x="22.903125" y="540.439327" style="stroke: #000000; stroke-width: 0.8"/>
      </g>
     </g>
     <g id="text_9">
      <!-- 0.2 -->
      <g transform="translate(-0 544.238546) scale(0.1 -0.1)">
       <defs>
        <path id="DejaVuSans-2e" d="M 684 794 
L 1344 794 
L 1344 0 
L 684 0 
L 684 794 
z
" transform="scale(0.015625)"/>
       </defs>
       <use xlink:href="#DejaVuSans-30"/>
       <use xlink:href="#DejaVuSans-2e" x="63.623047"/>
       <use xlink:href="#DejaVuSans-32" x="95.410156"/>
      </g>
     </g>
    </g>
    <g id="ytick_2">
     <g id="line2d_10">
      <g>
       <use xlink:href="#m93bc3bc413" x="22.903125" y="450.317202" style="stroke: #000000; stroke-width: 0.8"/>
      </g>
     </g>
     <g id="text_10">
      <!-- 0.3 -->
      <g transform="translate(-0 454.116421) scale(0.1 -0.1)">
       <use xlink:href="#DejaVuSans-30"/>
       <use xlink:href="#DejaVuSans-2e" x="63.623047"/>
       <use xlink:href="#DejaVuSans-33" x="95.410156"/>
      </g>
     </g>
    </g>
    <g id="ytick_3">
     <g id="line2d_11">
      <g>
       <use xlink:href="#m93bc3bc413" x="22.903125" y="360.195077" style="stroke: #000000; stroke-width: 0.8"/>
      </g>
     </g>
     <g id="text_11">
      <!-- 0.4 -->
      <g transform="translate(-0 363.994295) scale(0.1 -0.1)">
       <use xlink:href="#DejaVuSans-30"/>
       <use xlink:href="#DejaVuSans-2e" x="63.623047"/>
       <use xlink:href="#DejaVuSans-34" x="95.410156"/>
      </g>
     </g>
    </g>
    <g id="ytick_4">
     <g id="line2d_12">
      <g>
       <use xlink:href="#m93bc3bc413" x="22.903125" y="270.072951" style="stroke: #000000; stroke-width: 0.8"/>
      </g>
     </g>
     <g id="text_12">
      <!-- 0.5 -->
      <g transform="translate(-0 273.87217) scale(0.1 -0.1)">
       <use xlink:href="#DejaVuSans-30"/>
       <use xlink:href="#DejaVuSans-2e" x="63.623047"/>
       <use xlink:href="#DejaVuSans-35" x="95.410156"/>
      </g>
     </g>
    </g>
    <g id="ytick_5">
     <g id="line2d_13">
      <g>
       <use xlink:href="#m93bc3bc413" x="22.903125" y="179.950826" style="stroke: #000000; stroke-width: 0.8"/>
      </g>
     </g>
     <g id="text_13">
      <!-- 0.6 -->
      <g transform="translate(-0 183.750045) scale(0.1 -0.1)">
       <use xlink:href="#DejaVuSans-30"/>
       <use xlink:href="#DejaVuSans-2e" x="63.623047"/>
       <use xlink:href="#DejaVuSans-36" x="95.410156"/>
      </g>
     </g>
    </g>
    <g id="ytick_6">
     <g id="line2d_14">
      <g>
       <use xlink:href="#m93bc3bc413" x="22.903125" y="89.828701" style="stroke: #000000; stroke-width: 0.8"/>
      </g>
     </g>
     <g id="text_14">
      <!-- 0.7 -->
      <g transform="translate(-0 93.627919) scale(0.1 -0.1)">
       <use xlink:href="#DejaVuSans-30"/>
       <use xlink:href="#DejaVuSans-2e" x="63.623047"/>
       <use xlink:href="#DejaVuSans-37" x="95.410156"/>
      </g>
     </g>
    </g>
   </g>
   <g id="line2d_15">
    <path d="M 73.630398 309.361908 
L 77.7714 222.133881 
L 81.912401 138.914723 
L 86.053403 71.274464 
L 90.194405 128.044243 
L 94.335407 135.318131 
L 98.476409 183.564865 
L 102.617411 248.495334 
L 106.758413 317.592949 
L 110.899414 114.910417 
L 115.040416 217.548426 
L 119.181418 116.246661 
L 123.32242 110.504508 
L 127.463422 175.998716 
L 131.604424 78.088102 
L 135.745426 93.72811 
L 139.886427 144.741631 
L 144.027429 204.765073 
L 148.168431 215.478226 
L 152.309433 242.903207 
L 156.450435 529.2 
L 160.591437 121.670807 
L 164.732439 103.131329 
L 168.87344 111.458793 
L 173.014442 114.203531 
L 177.155444 123.702565 
L 181.296446 61.789925 
L 185.437448 143.802388 
L 189.57845 154.514748 
L 193.719452 213.658307 
L 197.860453 479.469849 
L 202.001455 242.903207 
L 206.142457 286.050527 
L 210.283459 300.268975 
L 214.424461 189.373122 
L 218.565463 310.586071 
L 222.706465 128.209788 
L 226.847466 155.754345 
L 230.988468 64.71295 
L 235.12947 97.029881 
L 239.270472 160.744936 
L 243.411474 216.341952 
L 247.552476 230.78193 
L 251.693478 381.735209 
L 255.834479 467.532501 
L 259.975481 237.784613 
L 264.116483 274.874387 
L 268.257485 171.673804 
L 272.398487 165.573856 
L 276.539489 107.378578 
L 280.68049 85.832282 
L 284.821492 155.347506 
L 288.962494 184.914254 
L 293.103496 175.268514 
L 297.244498 207.356113 
L 301.3855 436.496203 
L 305.526502 425.841418 
L 309.667503 154.913527 
L 313.808505 187.326079 
L 317.949507 190.301849 
L 322.090509 119.613295 
L 326.231511 162.561276 
L 330.372513 42.301627 
L 334.513515 82.020581 
L 338.654516 159.590838 
L 342.795518 268.374269 
L 346.93652 366.856111 
L 351.077522 258.178682 
L 355.218524 395.018026 
L 359.359526 137.50639 
L 363.500528 433.243907 
L 367.641529 231.190513 
L 371.782531 132.200697 
L 375.923533 142.685235 
L 380.064535 78.702217 
L 384.205537 92.099705 
L 388.346539 125.746585 
L 392.487541 193.596085 
L 396.628542 216.978643 
L 400.769544 261.288014 
L 404.910546 327.226751 
L 409.051548 248.417356 
L 413.19255 317.127558 
L 417.333552 124.409987 
L 421.474554 112.126062 
L 425.615555 94.879587 
L 429.756557 82.539568 
L 433.897559 108.031071 
L 438.038561 146.898029 
L 442.179563 208.671241 
L 446.320565 359.962332 
L 450.461567 274.871024 
L 454.602568 240.159929 
L 458.74357 392.918918 
L 462.884572 190.95436 
L 467.025574 287.406045 
L 471.166576 163.88265 
L 475.307578 123.23044 
L 479.44858 137.776799 
L 483.589581 94.887154 
L 487.730583 124.691763 
L 491.871585 181.742094 
L 496.012587 257.093534 
L 500.153589 312.331449 
L 504.294591 319.271058 
L 508.435593 144.242827 
L 512.576594 309.632514 
L 516.717596 256.304461 
L 520.858598 136.419598 
L 524.9996 125.739784 
L 529.140602 105.308928 
L 533.281604 109.46172 
L 537.422606 96.817063 
L 541.563607 203.335802 
L 545.704609 465.098578 
L 549.845611 516.827276 
L 553.986613 265.758135 
L 558.127615 173.845266 
L 562.268617 290.492357 
L 566.409619 210.393564 
L 570.55062 140.344457 
L 574.691622 104.542802 
L 578.832624 30.770147 
L 582.973626 83.206302 
L 587.114628 117.747228 
L 591.25563 139.653137 
L 595.396631 179.007205 
L 599.537633 229.532695 
L 603.678635 308.616037 
L 607.819637 153.536589 
L 611.960639 250.561396 
L 616.101641 137.122254 
L 620.242643 150.353862 
L 624.383644 126.680093 
L 628.524646 45.456863 
L 632.665648 103.608959 
L 636.80665 113.663297 
L 640.947652 154.185628 
L 645.088654 185.32787 
L 649.229656 317.892342 
L 653.370657 351.756225 
L 657.511659 392.460303 
L 661.652661 270.405657 
L 665.793663 219.752107 
L 669.934665 111.833192 
L 674.075667 148.241932 
L 678.216669 74.28318 
L 682.35767 102.520117 
L 686.498672 135.999455 
L 690.639674 128.998617 
L 694.780676 213.189129 
L 698.921678 464.564009 
L 703.06268 327.319048 
L 707.203682 108.341368 
L 711.344683 196.064784 
L 715.485685 162.975205 
L 719.626687 158.455522 
L 723.767689 104.187375 
L 727.908691 113.907762 
L 732.049693 134.067761 
L 736.190695 129.98772 
L 740.331696 132.915039 
L 744.472698 128.686742 
L 748.6137 215.712433 
L 752.754702 276.905379 
L 756.895704 111.593457 
L 761.036706 214.295037 
L 765.177708 164.698015 
L 769.318709 69.723147 
L 773.459711 152.373222 
L 777.600713 41.085355 
L 785.882717 128.773351 
L 790.023719 95.790768 
L 794.164721 125.453877 
L 802.446724 200.824481 
L 806.587726 179.242973 
L 810.728728 146.183454 
L 814.86973 320.259687 
L 819.010732 95.411686 
L 823.151734 82.806872 
L 827.292735 58.197906 
L 831.433737 48.723781 
L 835.574739 212.628886 
L 839.715741 121.574798 
L 843.856743 149.713635 
L 847.997745 183.893236 
L 852.138747 129.413578 
L 856.279748 124.601764 
L 860.42075 174.282361 
L 864.561752 131.170239 
L 868.702754 84.270967 
L 872.843756 96.672341 
L 876.984758 42.606469 
L 881.12576 72.018825 
L 885.266761 65.518185 
L 889.407763 343.65458 
L 893.548765 131.535914 
L 897.689767 294.678246 
L 901.830769 297.471711 
L 905.971771 351.065659 
L 910.112772 362.575401 
L 914.253774 140.166325 
L 918.394776 111.453554 
L 922.535778 55.502219 
L 926.67678 25.2 
L 930.817782 48.69179 
L 934.958784 90.467873 
L 939.099785 140.41103 
L 943.240787 241.730768 
L 947.381789 176.05154 
L 951.522791 304.211641 
L 955.663793 179.251801 
L 959.804795 199.018023 
L 963.945797 189.492296 
L 968.086798 97.372456 
L 972.2278 300.973691 
L 976.368802 204.946663 
L 980.509804 26.103229 
L 984.650806 68.72662 
L 988.791808 105.331762 
L 992.93281 147.678601 
L 997.073811 236.548828 
L 1001.214813 334.256556 
L 1005.355815 184.544185 
L 1009.496817 220.893336 
L 1013.637819 117.382739 
L 1017.778821 48.582787 
L 1021.919823 93.507173 
L 1026.060824 39.782217 
L 1030.201826 75.733999 
L 1034.342828 51.756761 
L 1038.48383 104.262276 
L 1042.624832 421.264185 
L 1046.765834 145.223641 
L 1050.906836 245.506483 
L 1055.047837 334.163477 
L 1059.188839 54.915569 
L 1063.329841 264.739104 
L 1067.470843 56.700417 
L 1071.611845 50.966075 
L 1075.752847 26.059847 
L 1079.893849 60.440436 
L 1084.03485 137.149351 
L 1088.175852 113.946843 
L 1088.175852 113.946843 
" clip-path="url(#p8738d58546)" style="fill: none; stroke: #008000; stroke-width: 1.5; stroke-linecap: square"/>
   </g>
   <g id="line2d_16">
    <path d="M 73.630398 213.653262 
L 1088.175852 148.614931 
L 1088.175852 148.614931 
" clip-path="url(#p8738d58546)" style="fill: none; stroke: #ff0000; stroke-width: 1.5; stroke-linecap: square"/>
   </g>
   <g id="patch_3">
    <path d="M 22.903125 554.4 
L 22.903125 0 
" style="fill: none; stroke: #000000; stroke-width: 0.8; stroke-linejoin: miter; stroke-linecap: square"/>
   </g>
   <g id="patch_4">
    <path d="M 1138.903125 554.4 
L 1138.903125 0 
" style="fill: none; stroke: #000000; stroke-width: 0.8; stroke-linejoin: miter; stroke-linecap: square"/>
   </g>
   <g id="patch_5">
    <path d="M 22.903125 554.4 
L 1138.903125 554.4 
" style="fill: none; stroke: #000000; stroke-width: 0.8; stroke-linejoin: miter; stroke-linecap: square"/>
   </g>
   <g id="patch_6">
    <path d="M 22.903125 0 
L 1138.903125 0 
" style="fill: none; stroke: #000000; stroke-width: 0.8; stroke-linejoin: miter; stroke-linecap: square"/>
   </g>
  </g>
 </g>
 <defs>
  <clipPath id="p8738d58546">
   <rect x="22.903125" y="0" width="1116" height="554.4"/>
  </clipPath>
 </defs>
</svg>
