<?xml version="1.0" encoding="utf-8" standalone="no"?>
<!DOCTYPE svg PUBLIC "-//W3C//DTD SVG 1.1//EN"
  "http://www.w3.org/Graphics/SVG/1.1/DTD/svg11.dtd">
<svg xmlns:xlink="http://www.w3.org/1999/xlink" width="1138.903125pt" height="571.078125pt" viewBox="0 0 1138.903125 571.078125" xmlns="http://www.w3.org/2000/svg" version="1.1">
 <metadata>
  <rdf:RDF xmlns:dc="http://purl.org/dc/elements/1.1/" xmlns:cc="http://creativecommons.org/ns#" xmlns:rdf="http://www.w3.org/1999/02/22-rdf-syntax-ns#">
   <cc:Work>
    <dc:type rdf:resource="http://purl.org/dc/dcmitype/StillImage"/>
    <dc:date>2024-01-04T01:30:54.916720</dc:date>
    <dc:format>image/svg+xml</dc:format>
    <dc:creator>
     <cc:Agent>
      <dc:title>Matplotlib v3.8.0, https://matplotlib.org/</dc:title>
     </cc:Agent>
    </dc:creator>
   </cc:Work>
  </rdf:RDF>
 </metadata>
 <defs>
  <style type="text/css">*{stroke-linejoin: round; stroke-linecap: butt}</style>
 </defs>
 <g id="figure_1">
  <g id="patch_1">
   <path d="M 0 571.078125 
L 1138.903125 571.078125 
L 1138.903125 0 
L 0 0 
z
" style="fill: #ffffff"/>
  </g>
  <g id="axes_1">
   <g id="patch_2">
    <path d="M 22.903125 554.4 
L 1138.903125 554.4 
L 1138.903125 0 
L 22.903125 0 
z
" style="fill: #ffffff"/>
   </g>
   <g id="PolyCollection_1">
    <path d="M 73.630398 554.143928 
L 73.630398 554.4 
L 127.027527 554.4 
L 180.424656 554.4 
L 233.821785 554.4 
L 287.218914 554.4 
L 340.616044 554.4 
L 394.013173 554.4 
L 447.410302 554.4 
L 500.807431 554.4 
L 554.20456 554.4 
L 607.60169 554.4 
L 660.998819 554.4 
L 714.395948 554.4 
L 767.793077 554.4 
L 821.190206 554.4 
L 874.587336 554.4 
L 927.984465 554.4 
L 981.381594 554.4 
L 1034.778723 554.4 
L 1088.175852 554.4 
L 1088.175852 554.255411 
L 1088.175852 554.255411 
L 1034.778723 554.228106 
L 981.381594 554.256119 
L 927.984465 554.214808 
L 874.587336 554.189908 
L 821.190206 554.183117 
L 767.793077 554.100353 
L 714.395948 554.053949 
L 660.998819 554.215373 
L 607.60169 554.188917 
L 554.20456 554.201226 
L 500.807431 554.114642 
L 447.410302 554.113935 
L 394.013173 554.104597 
L 340.616044 553.986465 
L 287.218914 554.162886 
L 233.821785 554.200943 
L 180.424656 554.09908 
L 127.027527 554.131054 
L 73.630398 554.143928 
z
" clip-path="url(#pb8957d93db)" style="fill: #640000"/>
   </g>
   <g id="PolyCollection_2">
    <path d="M 73.630398 552.198204 
L 73.630398 554.143928 
L 127.027527 554.131054 
L 180.424656 554.09908 
L 233.821785 554.200943 
L 287.218914 554.162886 
L 340.616044 553.986465 
L 394.013173 554.104597 
L 447.410302 554.113935 
L 500.807431 554.114642 
L 554.20456 554.201226 
L 607.60169 554.188917 
L 660.998819 554.215373 
L 714.395948 554.053949 
L 767.793077 554.100353 
L 821.190206 554.183117 
L 874.587336 554.189908 
L 927.984465 554.214808 
L 981.381594 554.256119 
L 1034.778723 554.228106 
L 1088.175852 554.255411 
L 1088.175852 545.878883 
L 1088.175852 545.878883 
L 1034.778723 552.87531 
L 981.381594 551.67361 
L 927.984465 547.738306 
L 874.587336 553.678329 
L 821.190206 550.721899 
L 767.793077 551.117891 
L 714.395948 547.568251 
L 660.998819 540.950415 
L 607.60169 552.416644 
L 554.20456 540.913914 
L 500.807431 552.660407 
L 447.410302 541.578003 
L 394.013173 553.162082 
L 340.616044 539.121268 
L 287.218914 544.47756 
L 233.821785 545.343678 
L 180.424656 548.550521 
L 127.027527 544.231391 
L 73.630398 552.198204 
z
" clip-path="url(#pb8957d93db)" style="fill: #8c0000"/>
   </g>
   <g id="PolyCollection_3">
    <path d="M 73.630398 546.575936 
L 73.630398 552.198204 
L 127.027527 544.231391 
L 180.424656 548.550521 
L 233.821785 545.343678 
L 287.218914 544.47756 
L 340.616044 539.121268 
L 394.013173 553.162082 
L 447.410302 541.578003 
L 500.807431 552.660407 
L 554.20456 540.913914 
L 607.60169 552.416644 
L 660.998819 540.950415 
L 714.395948 547.568251 
L 767.793077 551.117891 
L 821.190206 550.721899 
L 874.587336 553.678329 
L 927.984465 547.738306 
L 981.381594 551.67361 
L 1034.778723 552.87531 
L 1088.175852 545.878883 
L 1088.175852 522.782736 
L 1088.175852 522.782736 
L 1034.778723 547.033754 
L 981.381594 539.590262 
L 927.984465 529.263907 
L 874.587336 552.04159 
L 821.190206 542.668927 
L 767.793077 545.030308 
L 714.395948 540.08076 
L 660.998819 522.537558 
L 607.60169 546.274309 
L 554.20456 515.357777 
L 500.807431 546.62036 
L 447.410302 526.450226 
L 394.013173 550.237767 
L 340.616044 521.343356 
L 287.218914 525.981091 
L 233.821785 528.325919 
L 180.424656 529.504982 
L 127.027527 529.853297 
L 73.630398 546.575936 
z
" clip-path="url(#pb8957d93db)" style="fill: #b40a00"/>
   </g>
   <g id="PolyCollection_4">
    <path d="M 73.630398 534.90584 
L 73.630398 546.575936 
L 127.027527 529.853297 
L 180.424656 529.504982 
L 233.821785 528.325919 
L 287.218914 525.981091 
L 340.616044 521.343356 
L 394.013173 550.237767 
L 447.410302 526.450226 
L 500.807431 546.62036 
L 554.20456 515.357777 
L 607.60169 546.274309 
L 660.998819 522.537558 
L 714.395948 540.08076 
L 767.793077 545.030308 
L 821.190206 542.668927 
L 874.587336 552.04159 
L 927.984465 529.263907 
L 981.381594 539.590262 
L 1034.778723 547.033754 
L 1088.175852 522.782736 
L 1088.175852 497.831694 
L 1088.175852 497.831694 
L 1034.778723 533.506215 
L 981.381594 519.058656 
L 927.984465 504.494662 
L 874.587336 547.539249 
L 821.190206 530.085177 
L 767.793077 534.565872 
L 714.395948 516.45436 
L 660.998819 497.872156 
L 607.60169 533.142621 
L 554.20456 470.918941 
L 500.807431 525.510258 
L 447.410302 500.302577 
L 394.013173 536.116736 
L 340.616044 488.958018 
L 287.218914 499.382133 
L 233.821785 496.249706 
L 180.424656 489.108124 
L 127.027527 509.632515 
L 73.630398 534.90584 
z
" clip-path="url(#pb8957d93db)" style="fill: #dc1e00"/>
   </g>
   <g id="PolyCollection_5">
    <path d="M 73.630398 499.649947 
L 73.630398 534.90584 
L 127.027527 509.632515 
L 180.424656 489.108124 
L 233.821785 496.249706 
L 287.218914 499.382133 
L 340.616044 488.958018 
L 394.013173 536.116736 
L 447.410302 500.302577 
L 500.807431 525.510258 
L 554.20456 470.918941 
L 607.60169 533.142621 
L 660.998819 497.872156 
L 714.395948 516.45436 
L 767.793077 534.565872 
L 821.190206 530.085177 
L 874.587336 547.539249 
L 927.984465 504.494662 
L 981.381594 519.058656 
L 1034.778723 533.506215 
L 1088.175852 497.831694 
L 1088.175852 464.059322 
L 1088.175852 464.059322 
L 1034.778723 500.634339 
L 981.381594 474.202182 
L 927.984465 457.459877 
L 874.587336 533.07542 
L 821.190206 502.519794 
L 767.793077 504.486597 
L 714.395948 461.206877 
L 660.998819 447.685987 
L 607.60169 495.549823 
L 554.20456 419.009591 
L 500.807431 466.682858 
L 447.410302 441.420568 
L 394.013173 479.548854 
L 340.616044 435.231263 
L 287.218914 457.770135 
L 233.821785 430.659598 
L 180.424656 434.626877 
L 127.027527 479.663733 
L 73.630398 499.649947 
z
" clip-path="url(#pb8957d93db)" style="fill: #ff3200"/>
   </g>
   <g id="PolyCollection_6">
    <path d="M 73.630398 435.812589 
L 73.630398 499.649947 
L 127.027527 479.663733 
L 180.424656 434.626877 
L 233.821785 430.659598 
L 287.218914 457.770135 
L 340.616044 435.231263 
L 394.013173 479.548854 
L 447.410302 441.420568 
L 500.807431 466.682858 
L 554.20456 419.009591 
L 607.60169 495.549823 
L 660.998819 447.685987 
L 714.395948 461.206877 
L 767.793077 504.486597 
L 821.190206 502.519794 
L 874.587336 533.07542 
L 927.984465 457.459877 
L 981.381594 474.202182 
L 1034.778723 500.634339 
L 1088.175852 464.059322 
L 1088.175852 415.802607 
L 1088.175852 415.802607 
L 1034.778723 437.986231 
L 981.381594 393.862463 
L 927.984465 401.286714 
L 874.587336 491.522417 
L 821.190206 444.618074 
L 767.793077 446.913244 
L 714.395948 386.406096 
L 660.998819 376.741426 
L 607.60169 429.366363 
L 554.20456 365.741927 
L 500.807431 381.967561 
L 447.410302 369.658699 
L 394.013173 398.724296 
L 340.616044 373.700393 
L 287.218914 398.771549 
L 233.821785 357.400626 
L 180.424656 367.206631 
L 127.027527 431.879265 
L 73.630398 435.812589 
z
" clip-path="url(#pb8957d93db)" style="fill: #ff5000"/>
   </g>
   <g id="PolyCollection_7">
    <path d="M 73.630398 351.427497 
L 73.630398 435.812589 
L 127.027527 431.879265 
L 180.424656 367.206631 
L 233.821785 357.400626 
L 287.218914 398.771549 
L 340.616044 373.700393 
L 394.013173 398.724296 
L 447.410302 369.658699 
L 500.807431 381.967561 
L 554.20456 365.741927 
L 607.60169 429.366363 
L 660.998819 376.741426 
L 714.395948 386.406096 
L 767.793077 446.913244 
L 821.190206 444.618074 
L 874.587336 491.522417 
L 927.984465 401.286714 
L 981.381594 393.862463 
L 1034.778723 437.986231 
L 1088.175852 415.802607 
L 1088.175852 357.155448 
L 1088.175852 357.155448 
L 1034.778723 369.168908 
L 981.381594 311.702086 
L 927.984465 342.269171 
L 874.587336 420.419686 
L 821.190206 368.765134 
L 767.793077 369.769474 
L 714.395948 309.055489 
L 660.998819 296.62043 
L 607.60169 348.500636 
L 554.20456 295.027124 
L 500.807431 292.953789 
L 447.410302 286.40952 
L 394.013173 306.109669 
L 340.616044 292.528652 
L 287.218914 318.51714 
L 233.821785 270.665472 
L 180.424656 278.835162 
L 127.027527 355.406801 
L 73.630398 351.427497 
z
" clip-path="url(#pb8957d93db)" style="fill: #ff6e08"/>
   </g>
   <g id="PolyCollection_8">
    <path d="M 73.630398 225.172496 
L 73.630398 351.427497 
L 127.027527 355.406801 
L 180.424656 278.835162 
L 233.821785 270.665472 
L 287.218914 318.51714 
L 340.616044 292.528652 
L 394.013173 306.109669 
L 447.410302 286.40952 
L 500.807431 292.953789 
L 554.20456 295.027124 
L 607.60169 348.500636 
L 660.998819 296.62043 
L 714.395948 309.055489 
L 767.793077 369.769474 
L 821.190206 368.765134 
L 874.587336 420.419686 
L 927.984465 342.269171 
L 981.381594 311.702086 
L 1034.778723 369.168908 
L 1088.175852 357.155448 
L 1088.175852 272.377618 
L 1088.175852 272.377618 
L 1034.778723 272.254392 
L 981.381594 218.313301 
L 927.984465 255.191219 
L 874.587336 293.865603 
L 821.190206 255.545193 
L 767.793077 260.117424 
L 714.395948 205.551149 
L 660.998819 189.914057 
L 607.60169 226.474502 
L 554.20456 205.891965 
L 500.807431 182.642175 
L 447.410302 170.981982 
L 394.013173 191.919342 
L 340.616044 184.062314 
L 287.218914 201.508181 
L 233.821785 164.608192 
L 180.424656 171.814146 
L 127.027527 227.211877 
L 73.630398 225.172496 
z
" clip-path="url(#pb8957d93db)" style="fill: #de9e12"/>
   </g>
   <g id="PolyCollection_9">
    <path d="M 73.630398 64.007512 
L 73.630398 225.172496 
L 127.027527 227.211877 
L 180.424656 171.814146 
L 233.821785 164.608192 
L 287.218914 201.508181 
L 340.616044 184.062314 
L 394.013173 191.919342 
L 447.410302 170.981982 
L 500.807431 182.642175 
L 554.20456 205.891965 
L 607.60169 226.474502 
L 660.998819 189.914057 
L 714.395948 205.551149 
L 767.793077 260.117424 
L 821.190206 255.545193 
L 874.587336 293.865603 
L 927.984465 255.191219 
L 981.381594 218.313301 
L 1034.778723 272.254392 
L 1088.175852 272.377618 
L 1088.175852 136.215173 
L 1088.175852 136.215173 
L 1034.778723 129.241665 
L 981.381594 103.381638 
L 927.984465 117.414671 
L 874.587336 110.268704 
L 821.190206 104.545846 
L 767.793077 113.164157 
L 714.395948 78.419985 
L 660.998819 69.68156 
L 607.60169 80.40235 
L 554.20456 80.816027 
L 500.807431 63.585771 
L 447.410302 59.498521 
L 394.013173 67.467173 
L 340.616044 62.316728 
L 287.218914 67.969838 
L 233.821785 63.569784 
L 180.424656 64.936869 
L 127.027527 67.271511 
L 73.630398 64.007512 
z
" clip-path="url(#pb8957d93db)" style="fill: #c8b21c"/>
   </g>
   <g id="PolyCollection_10">
    <path d="M 73.630398 27.0747 
L 73.630398 64.007512 
L 127.027527 67.271511 
L 180.424656 64.936869 
L 233.821785 63.569784 
L 287.218914 67.969838 
L 340.616044 62.316728 
L 394.013173 67.467173 
L 447.410302 59.498521 
L 500.807431 63.585771 
L 554.20456 80.816027 
L 607.60169 80.40235 
L 660.998819 69.68156 
L 714.395948 78.419985 
L 767.793077 113.164157 
L 821.190206 104.545846 
L 874.587336 110.268704 
L 927.984465 117.414671 
L 981.381594 103.381638 
L 1034.778723 129.241665 
L 1088.175852 136.215173 
L 1088.175852 29.073053 
L 1088.175852 29.073053 
L 1034.778723 29.849192 
L 981.381594 29.290927 
L 927.984465 28.108326 
L 874.587336 28.273712 
L 821.190206 29.04688 
L 767.793077 29.059047 
L 714.395948 27.585288 
L 660.998819 27.760295 
L 607.60169 27.496583 
L 554.20456 28.264799 
L 500.807431 27.220563 
L 447.410302 27.315352 
L 394.013173 26.979628 
L 340.616044 27.619243 
L 287.218914 27.091395 
L 233.821785 27.359209 
L 180.424656 27.789439 
L 127.027527 27.166236 
L 73.630398 27.0747 
z
" clip-path="url(#pb8957d93db)" style="fill: #b6d026"/>
   </g>
   <g id="PolyCollection_11">
    <path d="M 73.630398 26.429993 
L 73.630398 27.0747 
L 127.027527 27.166236 
L 180.424656 27.789439 
L 233.821785 27.359209 
L 287.218914 27.091395 
L 340.616044 27.619243 
L 394.013173 26.979628 
L 447.410302 27.315352 
L 500.807431 27.220563 
L 554.20456 28.264799 
L 607.60169 27.496583 
L 660.998819 27.760295 
L 714.395948 27.585288 
L 767.793077 29.059047 
L 821.190206 29.04688 
L 874.587336 28.273712 
L 927.984465 28.108326 
L 981.381594 29.290927 
L 1034.778723 29.849192 
L 1088.175852 29.073053 
L 1088.175852 26.415845 
L 1088.175852 26.415845 
L 1034.778723 26.421221 
L 981.381594 26.406508 
L 927.984465 26.433954 
L 874.587336 26.4 
L 821.190206 26.742373 
L 767.793077 27.200756 
L 714.395948 26.504692 
L 660.998819 27.148693 
L 607.60169 26.488706 
L 554.20456 26.983731 
L 500.807431 26.454893 
L 447.410302 26.661165 
L 394.013173 26.49196 
L 340.616044 26.893752 
L 287.218914 26.450931 
L 233.821785 26.517142 
L 180.424656 26.840274 
L 127.027527 26.488423 
L 73.630398 26.429993 
z
" clip-path="url(#pb8957d93db)" style="fill: #8ee430"/>
   </g>
   <g id="matplotlib.axis_1">
    <g id="xtick_1">
     <g id="line2d_1">
      <defs>
       <path id="made08c482e" d="M 0 0 
L 0 3.5 
" style="stroke: #000000; stroke-width: 0.8"/>
      </defs>
      <g>
       <use xlink:href="#made08c482e" x="73.630398" y="554.4" style="stroke: #000000; stroke-width: 0.8"/>
      </g>
     </g>
     <g id="text_1">
      <!-- 2003 -->
      <g transform="translate(60.905398 568.998438) scale(0.1 -0.1)">
       <defs>
        <path id="DejaVuSans-32" d="M 1228 531 
L 3431 531 
L 3431 0 
L 469 0 
L 469 531 
Q 828 903 1448 1529 
Q 2069 2156 2228 2338 
Q 2531 2678 2651 2914 
Q 2772 3150 2772 3378 
Q 2772 3750 2511 3984 
Q 2250 4219 1831 4219 
Q 1534 4219 1204 4116 
Q 875 4013 500 3803 
L 500 4441 
Q 881 4594 1212 4672 
Q 1544 4750 1819 4750 
Q 2544 4750 2975 4387 
Q 3406 4025 3406 3419 
Q 3406 3131 3298 2873 
Q 3191 2616 2906 2266 
Q 2828 2175 2409 1742 
Q 1991 1309 1228 531 
z
" transform="scale(0.015625)"/>
        <path id="DejaVuSans-30" d="M 2034 4250 
Q 1547 4250 1301 3770 
Q 1056 3291 1056 2328 
Q 1056 1369 1301 889 
Q 1547 409 2034 409 
Q 2525 409 2770 889 
Q 3016 1369 3016 2328 
Q 3016 3291 2770 3770 
Q 2525 4250 2034 4250 
z
M 2034 4750 
Q 2819 4750 3233 4129 
Q 3647 3509 3647 2328 
Q 3647 1150 3233 529 
Q 2819 -91 2034 -91 
Q 1250 -91 836 529 
Q 422 1150 422 2328 
Q 422 3509 836 4129 
Q 1250 4750 2034 4750 
z
" transform="scale(0.015625)"/>
        <path id="DejaVuSans-33" d="M 2597 2516 
Q 3050 2419 3304 2112 
Q 3559 1806 3559 1356 
Q 3559 666 3084 287 
Q 2609 -91 1734 -91 
Q 1441 -91 1130 -33 
Q 819 25 488 141 
L 488 750 
Q 750 597 1062 519 
Q 1375 441 1716 441 
Q 2309 441 2620 675 
Q 2931 909 2931 1356 
Q 2931 1769 2642 2001 
Q 2353 2234 1838 2234 
L 1294 2234 
L 1294 2753 
L 1863 2753 
Q 2328 2753 2575 2939 
Q 2822 3125 2822 3475 
Q 2822 3834 2567 4026 
Q 2313 4219 1838 4219 
Q 1578 4219 1281 4162 
Q 984 4106 628 3988 
L 628 4550 
Q 988 4650 1302 4700 
Q 1616 4750 1894 4750 
Q 2613 4750 3031 4423 
Q 3450 4097 3450 3541 
Q 3450 3153 3228 2886 
Q 3006 2619 2597 2516 
z
" transform="scale(0.015625)"/>
       </defs>
       <use xlink:href="#DejaVuSans-32"/>
       <use xlink:href="#DejaVuSans-30" x="63.623047"/>
       <use xlink:href="#DejaVuSans-30" x="127.246094"/>
       <use xlink:href="#DejaVuSans-33" x="190.869141"/>
      </g>
     </g>
    </g>
    <g id="xtick_2">
     <g id="line2d_2">
      <g>
       <use xlink:href="#made08c482e" x="127.027527" y="554.4" style="stroke: #000000; stroke-width: 0.8"/>
      </g>
     </g>
     <g id="text_2">
      <!-- 2004 -->
      <g transform="translate(114.302527 568.998438) scale(0.1 -0.1)">
       <defs>
        <path id="DejaVuSans-34" d="M 2419 4116 
L 825 1625 
L 2419 1625 
L 2419 4116 
z
M 2253 4666 
L 3047 4666 
L 3047 1625 
L 3713 1625 
L 3713 1100 
L 3047 1100 
L 3047 0 
L 2419 0 
L 2419 1100 
L 313 1100 
L 313 1709 
L 2253 4666 
z
" transform="scale(0.015625)"/>
       </defs>
       <use xlink:href="#DejaVuSans-32"/>
       <use xlink:href="#DejaVuSans-30" x="63.623047"/>
       <use xlink:href="#DejaVuSans-30" x="127.246094"/>
       <use xlink:href="#DejaVuSans-34" x="190.869141"/>
      </g>
     </g>
    </g>
    <g id="xtick_3">
     <g id="line2d_3">
      <g>
       <use xlink:href="#made08c482e" x="180.424656" y="554.4" style="stroke: #000000; stroke-width: 0.8"/>
      </g>
     </g>
     <g id="text_3">
      <!-- 2005 -->
      <g transform="translate(167.699656 568.998438) scale(0.1 -0.1)">
       <defs>
        <path id="DejaVuSans-35" d="M 691 4666 
L 3169 4666 
L 3169 4134 
L 1269 4134 
L 1269 2991 
Q 1406 3038 1543 3061 
Q 1681 3084 1819 3084 
Q 2600 3084 3056 2656 
Q 3513 2228 3513 1497 
Q 3513 744 3044 326 
Q 2575 -91 1722 -91 
Q 1428 -91 1123 -41 
Q 819 9 494 109 
L 494 744 
Q 775 591 1075 516 
Q 1375 441 1709 441 
Q 2250 441 2565 725 
Q 2881 1009 2881 1497 
Q 2881 1984 2565 2268 
Q 2250 2553 1709 2553 
Q 1456 2553 1204 2497 
Q 953 2441 691 2322 
L 691 4666 
z
" transform="scale(0.015625)"/>
       </defs>
       <use xlink:href="#DejaVuSans-32"/>
       <use xlink:href="#DejaVuSans-30" x="63.623047"/>
       <use xlink:href="#DejaVuSans-30" x="127.246094"/>
       <use xlink:href="#DejaVuSans-35" x="190.869141"/>
      </g>
     </g>
    </g>
    <g id="xtick_4">
     <g id="line2d_4">
      <g>
       <use xlink:href="#made08c482e" x="233.821785" y="554.4" style="stroke: #000000; stroke-width: 0.8"/>
      </g>
     </g>
     <g id="text_4">
      <!-- 2006 -->
      <g transform="translate(221.096785 568.998438) scale(0.1 -0.1)">
       <defs>
        <path id="DejaVuSans-36" d="M 2113 2584 
Q 1688 2584 1439 2293 
Q 1191 2003 1191 1497 
Q 1191 994 1439 701 
Q 1688 409 2113 409 
Q 2538 409 2786 701 
Q 3034 994 3034 1497 
Q 3034 2003 2786 2293 
Q 2538 2584 2113 2584 
z
M 3366 4563 
L 3366 3988 
Q 3128 4100 2886 4159 
Q 2644 4219 2406 4219 
Q 1781 4219 1451 3797 
Q 1122 3375 1075 2522 
Q 1259 2794 1537 2939 
Q 1816 3084 2150 3084 
Q 2853 3084 3261 2657 
Q 3669 2231 3669 1497 
Q 3669 778 3244 343 
Q 2819 -91 2113 -91 
Q 1303 -91 875 529 
Q 447 1150 447 2328 
Q 447 3434 972 4092 
Q 1497 4750 2381 4750 
Q 2619 4750 2861 4703 
Q 3103 4656 3366 4563 
z
" transform="scale(0.015625)"/>
       </defs>
       <use xlink:href="#DejaVuSans-32"/>
       <use xlink:href="#DejaVuSans-30" x="63.623047"/>
       <use xlink:href="#DejaVuSans-30" x="127.246094"/>
       <use xlink:href="#DejaVuSans-36" x="190.869141"/>
      </g>
     </g>
    </g>
    <g id="xtick_5">
     <g id="line2d_5">
      <g>
       <use xlink:href="#made08c482e" x="287.218914" y="554.4" style="stroke: #000000; stroke-width: 0.8"/>
      </g>
     </g>
     <g id="text_5">
      <!-- 2007 -->
      <g transform="translate(274.493914 568.998438) scale(0.1 -0.1)">
       <defs>
        <path id="DejaVuSans-37" d="M 525 4666 
L 3525 4666 
L 3525 4397 
L 1831 0 
L 1172 0 
L 2766 4134 
L 525 4134 
L 525 4666 
z
" transform="scale(0.015625)"/>
       </defs>
       <use xlink:href="#DejaVuSans-32"/>
       <use xlink:href="#DejaVuSans-30" x="63.623047"/>
       <use xlink:href="#DejaVuSans-30" x="127.246094"/>
       <use xlink:href="#DejaVuSans-37" x="190.869141"/>
      </g>
     </g>
    </g>
    <g id="xtick_6">
     <g id="line2d_6">
      <g>
       <use xlink:href="#made08c482e" x="340.616044" y="554.4" style="stroke: #000000; stroke-width: 0.8"/>
      </g>
     </g>
     <g id="text_6">
      <!-- 2008 -->
      <g transform="translate(327.891044 568.998438) scale(0.1 -0.1)">
       <defs>
        <path id="DejaVuSans-38" d="M 2034 2216 
Q 1584 2216 1326 1975 
Q 1069 1734 1069 1313 
Q 1069 891 1326 650 
Q 1584 409 2034 409 
Q 2484 409 2743 651 
Q 3003 894 3003 1313 
Q 3003 1734 2745 1975 
Q 2488 2216 2034 2216 
z
M 1403 2484 
Q 997 2584 770 2862 
Q 544 3141 544 3541 
Q 544 4100 942 4425 
Q 1341 4750 2034 4750 
Q 2731 4750 3128 4425 
Q 3525 4100 3525 3541 
Q 3525 3141 3298 2862 
Q 3072 2584 2669 2484 
Q 3125 2378 3379 2068 
Q 3634 1759 3634 1313 
Q 3634 634 3220 271 
Q 2806 -91 2034 -91 
Q 1263 -91 848 271 
Q 434 634 434 1313 
Q 434 1759 690 2068 
Q 947 2378 1403 2484 
z
M 1172 3481 
Q 1172 3119 1398 2916 
Q 1625 2713 2034 2713 
Q 2441 2713 2670 2916 
Q 2900 3119 2900 3481 
Q 2900 3844 2670 4047 
Q 2441 4250 2034 4250 
Q 1625 4250 1398 4047 
Q 1172 3844 1172 3481 
z
" transform="scale(0.015625)"/>
       </defs>
       <use xlink:href="#DejaVuSans-32"/>
       <use xlink:href="#DejaVuSans-30" x="63.623047"/>
       <use xlink:href="#DejaVuSans-30" x="127.246094"/>
       <use xlink:href="#DejaVuSans-38" x="190.869141"/>
      </g>
     </g>
    </g>
    <g id="xtick_7">
     <g id="line2d_7">
      <g>
       <use xlink:href="#made08c482e" x="394.013173" y="554.4" style="stroke: #000000; stroke-width: 0.8"/>
      </g>
     </g>
     <g id="text_7">
      <!-- 2009 -->
      <g transform="translate(381.288173 568.998438) scale(0.1 -0.1)">
       <defs>
        <path id="DejaVuSans-39" d="M 703 97 
L 703 672 
Q 941 559 1184 500 
Q 1428 441 1663 441 
Q 2288 441 2617 861 
Q 2947 1281 2994 2138 
Q 2813 1869 2534 1725 
Q 2256 1581 1919 1581 
Q 1219 1581 811 2004 
Q 403 2428 403 3163 
Q 403 3881 828 4315 
Q 1253 4750 1959 4750 
Q 2769 4750 3195 4129 
Q 3622 3509 3622 2328 
Q 3622 1225 3098 567 
Q 2575 -91 1691 -91 
Q 1453 -91 1209 -44 
Q 966 3 703 97 
z
M 1959 2075 
Q 2384 2075 2632 2365 
Q 2881 2656 2881 3163 
Q 2881 3666 2632 3958 
Q 2384 4250 1959 4250 
Q 1534 4250 1286 3958 
Q 1038 3666 1038 3163 
Q 1038 2656 1286 2365 
Q 1534 2075 1959 2075 
z
" transform="scale(0.015625)"/>
       </defs>
       <use xlink:href="#DejaVuSans-32"/>
       <use xlink:href="#DejaVuSans-30" x="63.623047"/>
       <use xlink:href="#DejaVuSans-30" x="127.246094"/>
       <use xlink:href="#DejaVuSans-39" x="190.869141"/>
      </g>
     </g>
    </g>
    <g id="xtick_8">
     <g id="line2d_8">
      <g>
       <use xlink:href="#made08c482e" x="447.410302" y="554.4" style="stroke: #000000; stroke-width: 0.8"/>
      </g>
     </g>
     <g id="text_8">
      <!-- 2010 -->
      <g transform="translate(434.685302 568.998438) scale(0.1 -0.1)">
       <defs>
        <path id="DejaVuSans-31" d="M 794 531 
L 1825 531 
L 1825 4091 
L 703 3866 
L 703 4441 
L 1819 4666 
L 2450 4666 
L 2450 531 
L 3481 531 
L 3481 0 
L 794 0 
L 794 531 
z
" transform="scale(0.015625)"/>
       </defs>
       <use xlink:href="#DejaVuSans-32"/>
       <use xlink:href="#DejaVuSans-30" x="63.623047"/>
       <use xlink:href="#DejaVuSans-31" x="127.246094"/>
       <use xlink:href="#DejaVuSans-30" x="190.869141"/>
      </g>
     </g>
    </g>
    <g id="xtick_9">
     <g id="line2d_9">
      <g>
       <use xlink:href="#made08c482e" x="500.807431" y="554.4" style="stroke: #000000; stroke-width: 0.8"/>
      </g>
     </g>
     <g id="text_9">
      <!-- 2011 -->
      <g transform="translate(488.082431 568.998438) scale(0.1 -0.1)">
       <use xlink:href="#DejaVuSans-32"/>
       <use xlink:href="#DejaVuSans-30" x="63.623047"/>
       <use xlink:href="#DejaVuSans-31" x="127.246094"/>
       <use xlink:href="#DejaVuSans-31" x="190.869141"/>
      </g>
     </g>
    </g>
    <g id="xtick_10">
     <g id="line2d_10">
      <g>
       <use xlink:href="#made08c482e" x="554.20456" y="554.4" style="stroke: #000000; stroke-width: 0.8"/>
      </g>
     </g>
     <g id="text_10">
      <!-- 2012 -->
      <g transform="translate(541.47956 568.998438) scale(0.1 -0.1)">
       <use xlink:href="#DejaVuSans-32"/>
       <use xlink:href="#DejaVuSans-30" x="63.623047"/>
       <use xlink:href="#DejaVuSans-31" x="127.246094"/>
       <use xlink:href="#DejaVuSans-32" x="190.869141"/>
      </g>
     </g>
    </g>
    <g id="xtick_11">
     <g id="line2d_11">
      <g>
       <use xlink:href="#made08c482e" x="607.60169" y="554.4" style="stroke: #000000; stroke-width: 0.8"/>
      </g>
     </g>
     <g id="text_11">
      <!-- 2013 -->
      <g transform="translate(594.87669 568.998438) scale(0.1 -0.1)">
       <use xlink:href="#DejaVuSans-32"/>
       <use xlink:href="#DejaVuSans-30" x="63.623047"/>
       <use xlink:href="#DejaVuSans-31" x="127.246094"/>
       <use xlink:href="#DejaVuSans-33" x="190.869141"/>
      </g>
     </g>
    </g>
    <g id="xtick_12">
     <g id="line2d_12">
      <g>
       <use xlink:href="#made08c482e" x="660.998819" y="554.4" style="stroke: #000000; stroke-width: 0.8"/>
      </g>
     </g>
     <g id="text_12">
      <!-- 2014 -->
      <g transform="translate(648.273819 568.998438) scale(0.1 -0.1)">
       <use xlink:href="#DejaVuSans-32"/>
       <use xlink:href="#DejaVuSans-30" x="63.623047"/>
       <use xlink:href="#DejaVuSans-31" x="127.246094"/>
       <use xlink:href="#DejaVuSans-34" x="190.869141"/>
      </g>
     </g>
    </g>
    <g id="xtick_13">
     <g id="line2d_13">
      <g>
       <use xlink:href="#made08c482e" x="714.395948" y="554.4" style="stroke: #000000; stroke-width: 0.8"/>
      </g>
     </g>
     <g id="text_13">
      <!-- 2015 -->
      <g transform="translate(701.670948 568.998438) scale(0.1 -0.1)">
       <use xlink:href="#DejaVuSans-32"/>
       <use xlink:href="#DejaVuSans-30" x="63.623047"/>
       <use xlink:href="#DejaVuSans-31" x="127.246094"/>
       <use xlink:href="#DejaVuSans-35" x="190.869141"/>
      </g>
     </g>
    </g>
    <g id="xtick_14">
     <g id="line2d_14">
      <g>
       <use xlink:href="#made08c482e" x="767.793077" y="554.4" style="stroke: #000000; stroke-width: 0.8"/>
      </g>
     </g>
     <g id="text_14">
      <!-- 2016 -->
      <g transform="translate(755.068077 568.998438) scale(0.1 -0.1)">
       <use xlink:href="#DejaVuSans-32"/>
       <use xlink:href="#DejaVuSans-30" x="63.623047"/>
       <use xlink:href="#DejaVuSans-31" x="127.246094"/>
       <use xlink:href="#DejaVuSans-36" x="190.869141"/>
      </g>
     </g>
    </g>
    <g id="xtick_15">
     <g id="line2d_15">
      <g>
       <use xlink:href="#made08c482e" x="821.190206" y="554.4" style="stroke: #000000; stroke-width: 0.8"/>
      </g>
     </g>
     <g id="text_15">
      <!-- 2017 -->
      <g transform="translate(808.465206 568.998438) scale(0.1 -0.1)">
       <use xlink:href="#DejaVuSans-32"/>
       <use xlink:href="#DejaVuSans-30" x="63.623047"/>
       <use xlink:href="#DejaVuSans-31" x="127.246094"/>
       <use xlink:href="#DejaVuSans-37" x="190.869141"/>
      </g>
     </g>
    </g>
    <g id="xtick_16">
     <g id="line2d_16">
      <g>
       <use xlink:href="#made08c482e" x="874.587336" y="554.4" style="stroke: #000000; stroke-width: 0.8"/>
      </g>
     </g>
     <g id="text_16">
      <!-- 2018 -->
      <g transform="translate(861.862336 568.998438) scale(0.1 -0.1)">
       <use xlink:href="#DejaVuSans-32"/>
       <use xlink:href="#DejaVuSans-30" x="63.623047"/>
       <use xlink:href="#DejaVuSans-31" x="127.246094"/>
       <use xlink:href="#DejaVuSans-38" x="190.869141"/>
      </g>
     </g>
    </g>
    <g id="xtick_17">
     <g id="line2d_17">
      <g>
       <use xlink:href="#made08c482e" x="927.984465" y="554.4" style="stroke: #000000; stroke-width: 0.8"/>
      </g>
     </g>
     <g id="text_17">
      <!-- 2019 -->
      <g transform="translate(915.259465 568.998438) scale(0.1 -0.1)">
       <use xlink:href="#DejaVuSans-32"/>
       <use xlink:href="#DejaVuSans-30" x="63.623047"/>
       <use xlink:href="#DejaVuSans-31" x="127.246094"/>
       <use xlink:href="#DejaVuSans-39" x="190.869141"/>
      </g>
     </g>
    </g>
    <g id="xtick_18">
     <g id="line2d_18">
      <g>
       <use xlink:href="#made08c482e" x="981.381594" y="554.4" style="stroke: #000000; stroke-width: 0.8"/>
      </g>
     </g>
     <g id="text_18">
      <!-- 2020 -->
      <g transform="translate(968.656594 568.998438) scale(0.1 -0.1)">
       <use xlink:href="#DejaVuSans-32"/>
       <use xlink:href="#DejaVuSans-30" x="63.623047"/>
       <use xlink:href="#DejaVuSans-32" x="127.246094"/>
       <use xlink:href="#DejaVuSans-30" x="190.869141"/>
      </g>
     </g>
    </g>
    <g id="xtick_19">
     <g id="line2d_19">
      <g>
       <use xlink:href="#made08c482e" x="1034.778723" y="554.4" style="stroke: #000000; stroke-width: 0.8"/>
      </g>
     </g>
     <g id="text_19">
      <!-- 2021 -->
      <g transform="translate(1022.053723 568.998438) scale(0.1 -0.1)">
       <use xlink:href="#DejaVuSans-32"/>
       <use xlink:href="#DejaVuSans-30" x="63.623047"/>
       <use xlink:href="#DejaVuSans-32" x="127.246094"/>
       <use xlink:href="#DejaVuSans-31" x="190.869141"/>
      </g>
     </g>
    </g>
    <g id="xtick_20">
     <g id="line2d_20">
      <g>
       <use xlink:href="#made08c482e" x="1088.175852" y="554.4" style="stroke: #000000; stroke-width: 0.8"/>
      </g>
     </g>
     <g id="text_20">
      <!-- 2022 -->
      <g transform="translate(1075.450852 568.998438) scale(0.1 -0.1)">
       <use xlink:href="#DejaVuSans-32"/>
       <use xlink:href="#DejaVuSans-30" x="63.623047"/>
       <use xlink:href="#DejaVuSans-32" x="127.246094"/>
       <use xlink:href="#DejaVuSans-32" x="190.869141"/>
      </g>
     </g>
    </g>
   </g>
   <g id="matplotlib.axis_2">
    <g id="ytick_1">
     <g id="line2d_21">
      <defs>
       <path id="mf6efc5efa1" d="M 0 0 
L -3.5 0 
" style="stroke: #000000; stroke-width: 0.8"/>
      </defs>
      <g>
       <use xlink:href="#mf6efc5efa1" x="22.903125" y="554.4" style="stroke: #000000; stroke-width: 0.8"/>
      </g>
     </g>
     <g id="text_21">
      <!-- 0.0 -->
      <g transform="translate(-0 558.199219) scale(0.1 -0.1)">
       <defs>
        <path id="DejaVuSans-2e" d="M 684 794 
L 1344 794 
L 1344 0 
L 684 0 
L 684 794 
z
" transform="scale(0.015625)"/>
       </defs>
       <use xlink:href="#DejaVuSans-30"/>
       <use xlink:href="#DejaVuSans-2e" x="63.623047"/>
       <use xlink:href="#DejaVuSans-30" x="95.410156"/>
      </g>
     </g>
    </g>
    <g id="ytick_2">
     <g id="line2d_22">
      <g>
       <use xlink:href="#mf6efc5efa1" x="22.903125" y="448.830389" style="stroke: #000000; stroke-width: 0.8"/>
      </g>
     </g>
     <g id="text_22">
      <!-- 0.2 -->
      <g transform="translate(-0 452.629608) scale(0.1 -0.1)">
       <use xlink:href="#DejaVuSans-30"/>
       <use xlink:href="#DejaVuSans-2e" x="63.623047"/>
       <use xlink:href="#DejaVuSans-32" x="95.410156"/>
      </g>
     </g>
    </g>
    <g id="ytick_3">
     <g id="line2d_23">
      <g>
       <use xlink:href="#mf6efc5efa1" x="22.903125" y="343.260778" style="stroke: #000000; stroke-width: 0.8"/>
      </g>
     </g>
     <g id="text_23">
      <!-- 0.4 -->
      <g transform="translate(-0 347.059997) scale(0.1 -0.1)">
       <use xlink:href="#DejaVuSans-30"/>
       <use xlink:href="#DejaVuSans-2e" x="63.623047"/>
       <use xlink:href="#DejaVuSans-34" x="95.410156"/>
      </g>
     </g>
    </g>
    <g id="ytick_4">
     <g id="line2d_24">
      <g>
       <use xlink:href="#mf6efc5efa1" x="22.903125" y="237.691167" style="stroke: #000000; stroke-width: 0.8"/>
      </g>
     </g>
     <g id="text_24">
      <!-- 0.6 -->
      <g transform="translate(-0 241.490386) scale(0.1 -0.1)">
       <use xlink:href="#DejaVuSans-30"/>
       <use xlink:href="#DejaVuSans-2e" x="63.623047"/>
       <use xlink:href="#DejaVuSans-36" x="95.410156"/>
      </g>
     </g>
    </g>
    <g id="ytick_5">
     <g id="line2d_25">
      <g>
       <use xlink:href="#mf6efc5efa1" x="22.903125" y="132.121556" style="stroke: #000000; stroke-width: 0.8"/>
      </g>
     </g>
     <g id="text_25">
      <!-- 0.8 -->
      <g transform="translate(-0 135.920775) scale(0.1 -0.1)">
       <use xlink:href="#DejaVuSans-30"/>
       <use xlink:href="#DejaVuSans-2e" x="63.623047"/>
       <use xlink:href="#DejaVuSans-38" x="95.410156"/>
      </g>
     </g>
    </g>
    <g id="ytick_6">
     <g id="line2d_26">
      <g>
       <use xlink:href="#mf6efc5efa1" x="22.903125" y="26.551946" style="stroke: #000000; stroke-width: 0.8"/>
      </g>
     </g>
     <g id="text_26">
      <!-- 1.0 -->
      <g transform="translate(-0 30.351164) scale(0.1 -0.1)">
       <use xlink:href="#DejaVuSans-31"/>
       <use xlink:href="#DejaVuSans-2e" x="63.623047"/>
       <use xlink:href="#DejaVuSans-30" x="95.410156"/>
      </g>
     </g>
    </g>
   </g>
   <g id="patch_3">
    <path d="M 22.903125 554.4 
L 22.903125 0 
" style="fill: none; stroke: #000000; stroke-width: 0.8; stroke-linejoin: miter; stroke-linecap: square"/>
   </g>
   <g id="patch_4">
    <path d="M 1138.903125 554.4 
L 1138.903125 0 
" style="fill: none; stroke: #000000; stroke-width: 0.8; stroke-linejoin: miter; stroke-linecap: square"/>
   </g>
   <g id="patch_5">
    <path d="M 22.903125 554.4 
L 1138.903125 554.4 
" style="fill: none; stroke: #000000; stroke-width: 0.8; stroke-linejoin: miter; stroke-linecap: square"/>
   </g>
   <g id="patch_6">
    <path d="M 22.903125 0 
L 1138.903125 0 
" style="fill: none; stroke: #000000; stroke-width: 0.8; stroke-linejoin: miter; stroke-linecap: square"/>
   </g>
  </g>
 </g>
 <defs>
  <clipPath id="pb8957d93db">
   <rect x="22.903125" y="0" width="1116" height="554.4"/>
  </clipPath>
 </defs>
</svg>
