<?xml version="1.0" encoding="utf-8" standalone="no"?>
<!DOCTYPE svg PUBLIC "-//W3C//DTD SVG 1.1//EN"
  "http://www.w3.org/Graphics/SVG/1.1/DTD/svg11.dtd">
<svg xmlns:xlink="http://www.w3.org/1999/xlink" width="357.12pt" height="266.112pt" viewBox="0 0 357.12 266.112" xmlns="http://www.w3.org/2000/svg" version="1.1">
 <metadata>
  <rdf:RDF xmlns:dc="http://purl.org/dc/elements/1.1/" xmlns:cc="http://creativecommons.org/ns#" xmlns:rdf="http://www.w3.org/1999/02/22-rdf-syntax-ns#">
   <cc:Work>
    <dc:type rdf:resource="http://purl.org/dc/dcmitype/StillImage"/>
    <dc:date>2023-12-25T10:41:38.059350</dc:date>
    <dc:format>image/svg+xml</dc:format>
    <dc:creator>
     <cc:Agent>
      <dc:title>Matplotlib v3.8.0, https://matplotlib.org/</dc:title>
     </cc:Agent>
    </dc:creator>
   </cc:Work>
  </rdf:RDF>
 </metadata>
 <defs>
  <style type="text/css">*{stroke-linejoin: round; stroke-linecap: butt}</style>
 </defs>
 <g id="figure_1">
  <g id="patch_1">
   <path d="M 0 266.112 
L 357.12 266.112 
L 357.12 0 
L 0 0 
z
" style="fill: #ffffff"/>
  </g>
  <g id="axes_1">
   <g id="line2d_1">
    <path d="M 16.232727 148.493716 
L 18.89383 66.679067 
L 20.224382 34.211743 
L 21.554933 61.461237 
L 22.885484 64.952703 
L 24.216036 88.111135 
L 26.877139 152.444616 
L 28.20769 55.157 
L 29.538241 104.423244 
L 30.868793 55.798397 
L 32.199344 53.042164 
L 33.529896 84.479384 
L 34.860447 37.482289 
L 36.190999 44.989493 
L 37.52155 69.475983 
L 38.852101 98.287235 
L 40.182653 103.429549 
L 41.513204 116.593539 
L 42.843756 254.016 
L 44.174307 58.401987 
L 45.504858 49.503038 
L 46.83541 53.50022 
L 48.165961 54.817695 
L 49.496513 59.377231 
L 50.827064 29.659164 
L 52.157615 69.025146 
L 53.488167 74.167079 
L 54.818718 102.555987 
L 56.14927 230.145527 
L 57.479821 137.304253 
L 58.810373 144.129108 
L 60.140924 90.899099 
L 61.471475 149.081314 
L 62.802027 61.540698 
L 64.132578 74.762086 
L 65.46313 31.062216 
L 66.793681 46.574343 
L 68.124232 77.157569 
L 69.454784 103.844137 
L 70.785335 110.775326 
L 72.115887 183.2329 
L 73.446438 224.415601 
L 74.77699 114.136614 
L 76.107541 131.939706 
L 77.438092 82.403426 
L 78.768644 79.475451 
L 80.099195 51.541718 
L 81.429747 41.199495 
L 82.760298 74.566803 
L 84.090849 88.758842 
L 85.421401 84.128887 
L 86.751952 99.530934 
L 88.082504 209.518177 
L 89.413055 204.403881 
L 90.743607 74.358493 
L 92.074158 89.916518 
L 93.404709 91.344887 
L 94.735261 57.414382 
L 96.065812 78.029412 
L 97.396364 20.304781 
L 98.726915 39.369879 
L 100.057466 76.603602 
L 101.388018 128.819649 
L 102.718569 176.090933 
L 104.049121 123.925767 
L 105.379672 189.608653 
L 106.710224 66.003067 
L 108.040775 207.957075 
L 109.371326 110.971446 
L 110.701878 63.456335 
L 112.032429 68.488913 
L 113.362981 37.777064 
L 114.693532 44.207858 
L 116.024083 60.358361 
L 117.354635 92.926121 
L 118.685186 104.149748 
L 120.015738 125.418247 
L 121.346289 157.06884 
L 122.676841 119.240331 
L 124.007392 152.221228 
L 125.337943 59.716794 
L 126.668495 53.82051 
L 127.999046 45.542202 
L 129.329598 39.618993 
L 130.660149 51.854914 
L 131.9907 70.511054 
L 133.321252 100.162196 
L 134.651803 172.781919 
L 135.982355 131.938091 
L 137.312906 115.276766 
L 138.643458 188.601081 
L 139.974009 91.658093 
L 141.30456 137.954901 
L 142.635112 78.663672 
L 143.965663 59.150611 
L 145.296215 66.132863 
L 146.626766 45.545834 
L 147.957317 59.852046 
L 149.287869 87.236205 
L 150.61842 123.404896 
L 151.948972 149.919095 
L 153.279523 153.250108 
L 154.610075 69.236557 
L 155.940626 148.623607 
L 157.271177 123.026141 
L 158.601729 65.481407 
L 159.93228 60.355096 
L 161.262832 50.548285 
L 162.593383 52.541626 
L 163.923934 46.47219 
L 165.254486 97.601185 
L 166.585037 223.247318 
L 167.915589 248.077092 
L 169.24614 127.563905 
L 170.576692 83.445728 
L 171.907243 139.436331 
L 173.237794 100.988911 
L 174.568346 67.365339 
L 175.898897 50.180545 
L 177.229449 14.769671 
L 178.56 39.939025 
L 179.890551 56.518669 
L 181.221103 67.033506 
L 182.551654 85.923459 
L 183.882206 110.175694 
L 185.212757 148.135698 
L 186.543308 73.697563 
L 187.87386 120.26947 
L 189.204411 65.818682 
L 190.534963 72.169854 
L 191.865514 60.806445 
L 193.196066 21.819294 
L 194.526617 49.7323 
L 195.857168 54.558383 
L 197.18772 74.009101 
L 198.518271 88.957378 
L 199.848823 152.588324 
L 201.179374 168.842988 
L 202.509925 188.380945 
L 203.840477 129.794715 
L 205.171028 105.481011 
L 206.50158 53.679932 
L 207.832131 71.156127 
L 209.162683 35.655927 
L 210.493234 49.209656 
L 211.823785 65.279738 
L 213.154337 61.919336 
L 214.484888 102.330782 
L 215.81544 222.990724 
L 217.145991 157.113143 
L 218.476542 52.003857 
L 219.807094 94.111096 
L 221.137645 78.228098 
L 222.468197 76.058651 
L 223.798748 50.00994 
L 225.1293 54.675726 
L 226.459851 64.352525 
L 227.790402 62.394106 
L 229.120954 63.799219 
L 230.451505 61.769636 
L 231.782057 103.541968 
L 233.112608 132.914582 
L 234.443159 53.564859 
L 235.773711 102.861618 
L 237.104262 79.055047 
L 238.434814 33.467111 
L 239.765365 73.139147 
L 241.095917 19.72097 
L 243.757019 61.811209 
L 245.087571 45.979569 
L 246.418122 60.217861 
L 249.079225 96.395751 
L 250.409776 86.036627 
L 251.740328 70.168058 
L 253.070879 153.72465 
L 254.401431 45.797609 
L 255.731982 39.747298 
L 257.062534 27.934995 
L 258.393085 23.387415 
L 259.723636 102.061865 
L 261.054188 58.355903 
L 262.384739 71.862545 
L 263.715291 88.268753 
L 265.045842 62.118517 
L 266.376393 59.808847 
L 267.706945 83.655534 
L 269.037496 62.961715 
L 270.368048 40.450064 
L 271.698599 46.402724 
L 273.029151 20.451105 
L 274.359702 34.569036 
L 275.690253 31.448729 
L 277.020805 164.954198 
L 278.351356 63.137239 
L 279.681908 141.445558 
L 281.012459 142.786421 
L 282.34301 168.511516 
L 283.673562 174.036193 
L 285.004113 67.279836 
L 286.334665 53.497706 
L 287.665216 26.641065 
L 288.995768 12.096 
L 290.326319 23.372059 
L 291.65687 43.424579 
L 292.987422 67.397294 
L 294.317973 116.030769 
L 295.648525 84.504739 
L 296.979076 146.021588 
L 298.309627 86.040865 
L 299.640179 95.528651 
L 300.97073 90.956302 
L 302.301282 46.738779 
L 303.631833 144.467372 
L 304.962385 98.374398 
L 306.292936 12.52955 
L 307.623487 32.988777 
L 308.954039 50.559246 
L 310.28459 70.885729 
L 311.615142 113.543437 
L 312.945693 160.443147 
L 314.276244 88.581209 
L 315.606796 106.028801 
L 316.937347 56.343715 
L 318.267899 23.319738 
L 319.59845 44.883443 
L 320.929001 19.095464 
L 322.259553 36.35232 
L 323.590104 24.843245 
L 324.920656 50.045893 
L 326.251207 202.206809 
L 327.581759 69.707348 
L 328.91231 117.843112 
L 330.242861 160.398469 
L 331.573413 26.359473 
L 332.903964 127.07477 
L 334.234516 27.2162 
L 335.565067 24.463716 
L 336.895618 12.508726 
L 338.22617 29.011409 
L 339.556721 65.831688 
L 340.887273 54.694485 
L 340.887273 54.694485 
" clip-path="url(#p6aa3a0c98e)" style="fill: none; stroke: #008000; stroke-width: 1.5; stroke-linecap: square"/>
   </g>
   <g id="line2d_2">
    <path d="M 16.232727 102.287892 
L 340.887273 71.358807 
L 340.887273 71.358807 
" clip-path="url(#p6aa3a0c98e)" style="fill: none; stroke: #ff0000; stroke-width: 1.5; stroke-linecap: square"/>
   </g>
  </g>
 </g>
 <defs>
  <clipPath id="p6aa3a0c98e">
   <rect x="0" y="-0" width="357.12" height="266.112"/>
  </clipPath>
 </defs>
</svg>
