<svg width="1619" height="772" aria-label="A chart." style="overflow: hidden;"><defs id="_ABSTRACT_RENDERER_ID_9"><clipPath id="_ABSTRACT_RENDERER_ID_10"><rect x="262" y="148" width="1095" height="477"></rect></clipPath></defs><rect x="0" y="0" width="1619" height="772" stroke="none" stroke-width="0" fill="#ffffff"></rect><g><text text-anchor="start" x="262" y="117.45" font-family="Arial" font-size="17" font-weight="bold" stroke="none" stroke-width="0" fill="#000000">NDVI Yearly Seires</text><rect x="262" y="103" width="1095" height="17" stroke="none" stroke-width="0" fill-opacity="0" fill="#ffffff"></rect></g><g><rect x="1374" y="148" width="228" height="17" stroke="none" stroke-width="0" fill-opacity="0" fill="#ffffff"></rect><g column-id="NDVI_mean"><rect x="1374" y="148" width="228" height="17" stroke="none" stroke-width="0" fill-opacity="0" fill="#ffffff"></rect><g><text text-anchor="start" x="1414" y="162.45" font-family="Arial" font-size="17" stroke="none" stroke-width="0" fill="#222222">NDVI_mean</text></g><path d="M1374,156.5L1408,156.5" stroke="#3366cc" stroke-width="2" fill-opacity="1" fill="none"></path></g></g><g><rect x="262" y="148" width="1095" height="477" stroke="none" stroke-width="0" fill-opacity="0" fill="#ffffff"></rect><g clip-path="url(https://code.earthengine.google.com/?project=ee-1453296583#_ABSTRACT_RENDERER_ID_10)"><g><rect x="262" y="148" width="1" height="477" stroke="none" stroke-width="0" fill="#cccccc"></rect><rect x="371" y="148" width="1" height="477" stroke="none" stroke-width="0" fill="#cccccc"></rect><rect x="481" y="148" width="1" height="477" stroke="none" stroke-width="0" fill="#cccccc"></rect><rect x="590" y="148" width="1" height="477" stroke="none" stroke-width="0" fill="#cccccc"></rect><rect x="700" y="148" width="1" height="477" stroke="none" stroke-width="0" fill="#cccccc"></rect><rect x="809" y="148" width="1" height="477" stroke="none" stroke-width="0" fill="#cccccc"></rect><rect x="918" y="148" width="1" height="477" stroke="none" stroke-width="0" fill="#cccccc"></rect><rect x="1028" y="148" width="1" height="477" stroke="none" stroke-width="0" fill="#cccccc"></rect><rect x="1137" y="148" width="1" height="477" stroke="none" stroke-width="0" fill="#cccccc"></rect><rect x="1247" y="148" width="1" height="477" stroke="none" stroke-width="0" fill="#cccccc"></rect><rect x="1356" y="148" width="1" height="477" stroke="none" stroke-width="0" fill="#cccccc"></rect><rect x="317" y="148" width="1" height="477" stroke="none" stroke-width="0" fill="#ebebeb"></rect><rect x="426" y="148" width="1" height="477" stroke="none" stroke-width="0" fill="#ebebeb"></rect><rect x="536" y="148" width="1" height="477" stroke="none" stroke-width="0" fill="#ebebeb"></rect><rect x="645" y="148" width="1" height="477" stroke="none" stroke-width="0" fill="#ebebeb"></rect><rect x="754" y="148" width="1" height="477" stroke="none" stroke-width="0" fill="#ebebeb"></rect><rect x="864" y="148" width="1" height="477" stroke="none" stroke-width="0" fill="#ebebeb"></rect><rect x="973" y="148" width="1" height="477" stroke="none" stroke-width="0" fill="#ebebeb"></rect><rect x="1083" y="148" width="1" height="477" stroke="none" stroke-width="0" fill="#ebebeb"></rect><rect x="1192" y="148" width="1" height="477" stroke="none" stroke-width="0" fill="#ebebeb"></rect><rect x="1301" y="148" width="1" height="477" stroke="none" stroke-width="0" fill="#ebebeb"></rect><rect x="262" y="624" width="1095" height="1" stroke="none" stroke-width="0" fill="#cccccc"></rect><rect x="262" y="545" width="1095" height="1" stroke="none" stroke-width="0" fill="#cccccc"></rect><rect x="262" y="465" width="1095" height="1" stroke="none" stroke-width="0" fill="#cccccc"></rect><rect x="262" y="386" width="1095" height="1" stroke="none" stroke-width="0" fill="#cccccc"></rect><rect x="262" y="307" width="1095" height="1" stroke="none" stroke-width="0" fill="#cccccc"></rect><rect x="262" y="227" width="1095" height="1" stroke="none" stroke-width="0" fill="#cccccc"></rect><rect x="262" y="148" width="1095" height="1" stroke="none" stroke-width="0" fill="#cccccc"></rect><rect x="262" y="584" width="1095" height="1" stroke="none" stroke-width="0" fill="#ebebeb"></rect><rect x="262" y="505" width="1095" height="1" stroke="none" stroke-width="0" fill="#ebebeb"></rect><rect x="262" y="426" width="1095" height="1" stroke="none" stroke-width="0" fill="#ebebeb"></rect><rect x="262" y="346" width="1095" height="1" stroke="none" stroke-width="0" fill="#ebebeb"></rect><rect x="262" y="267" width="1095" height="1" stroke="none" stroke-width="0" fill="#ebebeb"></rect><rect x="262" y="188" width="1095" height="1" stroke="none" stroke-width="0" fill="#ebebeb"></rect></g><g><path d="M262.5,504.3321185426935L317.20000000001164,339.08750758600036L371.90000000000873,419.8794517875467L426.6000000000058,334.8828553080202L481.3000000000029,260.9317390934034L536,602.3060379166536L590.7000000000116,508.3266615880766L645.4000000000087,416.10111312540675L700.1000000000058,466.61420376572687L754.8000000000029,341.1776271437034L809.5,595.406328750747L864.2000000000116,336.8785472487102L918.9000000000087,524.6145227932402L973.6000000000058,357.7051397995301L1028.300000000003,347.90337686171006L1083,419.0423889482536L1137.7000000000116,178.67813955342672L1192.4000000000087,169.54349768579323L1247.1000000000058,162.1690855488837L1301.800000000003,393.93369702457676L1356.5,246.9140538227466" stroke="#3366cc" stroke-width="2" fill-opacity="1" fill="none"></path></g></g><g></g><g><g><text text-anchor="middle" x="262.5" y="650.45" font-family="Arial" font-size="17" stroke="none" stroke-width="0" fill="#444444">2,000</text></g><g><text text-anchor="middle" x="371.9" y="650.45" font-family="Arial" font-size="17" stroke="none" stroke-width="0" fill="#444444">2,002</text></g><g><text text-anchor="middle" x="481.3" y="650.45" font-family="Arial" font-size="17" stroke="none" stroke-width="0" fill="#444444">2,004</text></g><g><text text-anchor="middle" x="590.7" y="650.45" font-family="Arial" font-size="17" stroke="none" stroke-width="0" fill="#444444">2,006</text></g><g><text text-anchor="middle" x="700.1" y="650.45" font-family="Arial" font-size="17" stroke="none" stroke-width="0" fill="#444444">2,008</text></g><g><text text-anchor="middle" x="809.5" y="650.45" font-family="Arial" font-size="17" stroke="none" stroke-width="0" fill="#444444">2,010</text></g><g><text text-anchor="middle" x="918.9" y="650.45" font-family="Arial" font-size="17" stroke="none" stroke-width="0" fill="#444444">2,012</text></g><g><text text-anchor="middle" x="1028.3" y="650.45" font-family="Arial" font-size="17" stroke="none" stroke-width="0" fill="#444444">2,014</text></g><g><text text-anchor="middle" x="1137.7" y="650.45" font-family="Arial" font-size="17" stroke="none" stroke-width="0" fill="#444444">2,016</text></g><g><text text-anchor="middle" x="1247.1" y="650.45" font-family="Arial" font-size="17" stroke="none" stroke-width="0" fill="#444444">2,018</text></g><g><text text-anchor="middle" x="1356.5" y="650.45" font-family="Arial" font-size="17" stroke="none" stroke-width="0" fill="#444444">2,020</text></g><g><text text-anchor="end" x="245" y="630.45" font-family="Arial" font-size="17" stroke="none" stroke-width="0" fill="#444444">0.52</text></g><g><text text-anchor="end" x="245" y="551.1167" font-family="Arial" font-size="17" stroke="none" stroke-width="0" fill="#444444">0.54</text></g><g><text text-anchor="end" x="245" y="471.7833" font-family="Arial" font-size="17" stroke="none" stroke-width="0" fill="#444444">0.56</text></g><g><text text-anchor="end" x="245" y="392.45" font-family="Arial" font-size="17" stroke="none" stroke-width="0" fill="#444444">0.58</text></g><g><text text-anchor="end" x="245" y="313.1167" font-family="Arial" font-size="17" stroke="none" stroke-width="0" fill="#444444">0.60</text></g><g><text text-anchor="end" x="245" y="233.7833" font-family="Arial" font-size="17" stroke="none" stroke-width="0" fill="#444444">0.62</text></g><g><text text-anchor="end" x="245" y="154.45" font-family="Arial" font-size="17" stroke="none" stroke-width="0" fill="#444444">0.64</text></g></g></g><g><g><text text-anchor="middle" x="809.5" y="718.45" font-family="Arial" font-size="17" font-style="italic" stroke="none" stroke-width="0" fill="#222222">Date</text><rect x="262" y="704" width="1095" height="17" stroke="none" stroke-width="0" fill-opacity="0" fill="#ffffff"></rect></g><g><text text-anchor="middle" x="111.95" y="386.5" font-family="Arial" font-size="17" font-style="italic" transform="rotate(-90 111.95 386.5)" stroke="none" stroke-width="0" fill="#222222">NDVI</text><path d="M97.49999999999999,625L97.50000000000001,148L114.50000000000001,148L114.49999999999999,625Z" stroke="none" stroke-width="0" fill-opacity="0" fill="#ffffff"></path></g></g><g></g></svg>