<svg t="1702184408281" class="icon" viewBox="0 0 1024 1024" version="1.1" xmlns="http://www.w3.org/2000/svg" p-id="1618" data-spm-anchor-id="a313x.search_index.0.i2.47b53a81mOb0j0" width="200" height="200"><path d="M701.184 344.405333l-0.213333-2.176-3.584 0.298667 0.213333 2.218667z m23.978667 57.685334l0.085333 1.194666 2.474667-0.213333a9.130667 9.130667 0 0 1 0.768-3.498667l-0.213334-2.176c-1.066667 0.085333-2.133333 1.664-3.114666 4.693334z m-93.568 72.618666c-0.170667-2.048-6.528-10.026667-19.114667-24.064-0.213333-2.56 4.096-6.4 12.970667-11.52l25.344-22.101333c5.674667-7.210667 9.002667-18.858667 10.026666-35.114667l-0.298666-3.712c-1.024-11.221333-9.130667-20.266667-24.533334-27.178666-9.088-6.144-25.472-9.557333-49.152-10.154667-19.626667 1.664-45.141333 8.661333-76.672 20.992a314.709333 314.709333 0 0 1-29.568 18.688l0.170667 1.877333a7.082667 7.082667 0 0 0 2.986667-1.28c1.28-0.128 2.005333 0.426667 2.133333 1.706667l1.877333-1.024 0.853334-0.085333 0.128 0.853333c0.085333 0.981333-6.741333 6.4-20.565334 16l1.066667 1.962667-0.896 0.085333-2.304-0.853333c0.085333 0.725333-0.896 1.152-2.816 1.28l0.085333 0.853333 2.218667 2.730667a8.32 8.32 0 0 1-3.2-0.725334 15.36 15.36 0 0 0-9.386667 5.12l1.28-5.589333c4.650667-19.968 7.808-37.632 9.472-52.949333l-0.213333-0.981334a38.485333 38.485333 0 0 1-9.173333-8.576 27.008 27.008 0 0 0 0-4.053333l-0.213334-0.853333-0.896 0.256c-10.026667 15.018667-29.312 40.661333-57.898666 76.928-21.76 25.813333-33.024 40.149333-33.706667 43.050666-8.874667 9.173333-13.098667 14.72-12.672 16.64-2.346667 1.493333-3.328 2.986667-2.986667 4.693334-0.64 0.128-1.109333-0.085333-1.28-0.768a25.856 25.856 0 0 1-16.896 11.818666l-7.893333 1.834667c-1.066667 0.213333-1.578667 0.981333-1.493333 2.261333l0.213333 0.981334 2.944-0.682667 0.213333 0.853333-6.698666 2.56-11.818667 2.730667-6.229333 0.426667c-0.896 0.853333 4.949333-0.128 2.645333 0.426666l-7.722667 1.834667c-4.693333 1.066667-7.253333 0.682667-7.722666-1.237333l-0.938667 0.213333a4.693333 4.693333 0 0 1 0.085333 2.005333l-0.426666-1.92-6.229334 1.450667c-0.426667-2.901333-8.874667-13.354667-25.173333-31.402667-0.341333-3.498667 5.418667-8.576 17.194667-15.189333l33.237333-29.226667c7.424-9.557333 11.818667-24.874667 13.269333-45.952l-0.426666-4.949333c-1.28-14.890667-12.074667-26.88-32.341334-36.096-11.989333-8.106667-33.536-12.458667-64.64-13.141333-25.813333 2.176-59.52 11.392-100.949333 27.392a385.706667 385.706667 0 0 1-38.912 24.576l0.213333 2.56a10.24 10.24 0 0 0 3.84-1.493334c1.706667-0.170667 2.602667 0.597333 2.773334 2.133334l2.56-1.450667 1.28-0.085333 0.085333 1.237333c0.085333 1.194667-8.96 8.234667-27.221333 21.162667l1.450666 2.261333-1.28 0.085333-2.816-0.981333c0.085333 0.768-1.237333 1.28-3.84 1.493333l0.128 1.365334 3.029334 3.370666a11.008 11.008 0 0 1-4.096-0.853333c-5.930667 0.554667-11.690667 4.778667-17.365334 12.8l1.450667 2.304c4.906667-4.565333 7.808-6.826667 8.618667-6.912l0.298666 3.712a12.501333 12.501333 0 0 0-3.84 1.536l3.114667 4.693333a102.826667 102.826667 0 0 1 19.797333-16.64c3.541333 0.938667 5.461333 2.090667 5.546667 3.285334l2.730667-0.213334c19.541333-14.506667 38.912-24.96 58.112-31.402666l0.213333 2.56c-3.584 5.333333-5.973333 8.064-7.253333 8.192 0.128 1.834667 0.725333 3.413333 1.877333 4.778666 0.298667 3.285333-8.448 25.258667-26.112 65.962667-40.106667 94.549333-73.813333 164.48-101.248 209.706667 0.085333 0.938667 0.64 2.133333 1.621333 3.669333 6.741333-1.621333 11.008-3.285333 12.8-4.864l1.450667-0.170667 0.213333 2.56 2.517334-0.213333 2.56-1.408c0.085333 0.725333 0.938667 1.109333 2.688 0.981333l0.213333 2.56c0.213333 2.517333-1.237333 6.314667-4.266667 11.52-2.730667 3.114667-5.674667 9.642667-8.789333 19.626667l0.085333 1.194667 2.517334-0.256c10.922667-12.202667 19.2-24.192 24.874666-35.84 31.872-9.386667 56.149333-18.56 72.96-27.562667 16.938667-1.450667 29.866667-5.930667 38.656-13.312l-0.170666-1.365333-6.4 1.92-1.408 0.170666-0.170667-1.408c12.416-1.877333 20.992-4.608 25.770667-8.405333 24.234667-18.645333 42.496-31.872 54.869333-39.68 25.429333-18.688 41.984-36.864 49.493333-54.570667l4.266667-0.981333a45.226667 45.226667 0 0 0 6.058667-0.384c-0.170667-0.682667 0.170667-1.066667 0.853333-1.194667 5.674667-0.597333 2.944 0.384 6.570667-0.426666l9.557333-2.218667c-0.597333 0.128-0.853333 0.426667-0.682667 1.024l1.450667-0.853333c-0.298667 0-0.554667-0.128-0.768-0.170667l1.578667-0.426667-0.725334 0.469334a9.301333 9.301333 0 0 0 3.456-0.213334l0.682667 2.816-43.477333 69.12-9.642667 12.074667-4.693333 15.786667 0.896-0.256 4.693333-1.962667-1.493333 6.144 0.426666 1.834667 1.322667 1.578666c-0.597333 0.170667-0.853333 0.554667-0.682667 1.237334l0.213334 0.981333 1.962666-0.426667c2.901333-2.56 4.096-4.821333 3.669334-6.869333a17.92 17.92 0 0 0 6.186666 0.426667l0.213334 1.024c-1.877333 0.426667-2.858667 1.962667-2.986667 4.565333l0.170667 0.981333 1.066666-0.256c15.786667-17.194667 54.485333-76.16 85.546667-116.138666-1.024-4.352 15.146667-10.325333 48.554667-18.090667l1.066666-0.213333c1.194667 5.248-1.365333 17.92-7.765333 38.016-4.096 12.16-6.058667 18.816-5.76 19.882666-5.290667 16.170667-7.808 24.874667-7.509333 26.24l-11.818667 38.826667c-7.68 19.84-13.525333 40.704-17.621333 62.72a7.68 7.68 0 0 1 3.285333 0.298667l1.664-1.450667c0.170667 0.682667 0.597333 0.896 1.28 0.768l-0.682667-2.816 5.12-0.128c1.536-0.426667 2.858667-2.304 3.882667-5.802667-0.213333-5.205333 0.853333-8.021333 3.2-8.618666 3.2-12.458667 5.162667-18.688 5.845333-18.901334 2.986667-12.373333 5.162667-19.456 6.613334-21.162666 4.48-16.085333 7.722667-24.362667 9.856-24.917334l0.426666 2.005334-3.242666 8.405333c-5.674667 25.258667-11.434667 45.226667-17.28 59.861333l1.664 7.253334 1.066666-0.170667c14.08-30.378667 34.432-90.453333 60.928-180.309333a23.552 23.552 0 0 1 11.306667-18.346667l-1.536-1.621333-0.213333-0.853334a10.325333 10.325333 0 0 0 6.4-3.541333c-0.170667-0.682667-2.816-1.664-7.978667-3.029333l13.226667-56.618667a19.626667 19.626667 0 0 1 5.034666-3.925333l0.213334 2.858666a7.082667 7.082667 0 0 0-2.944 1.28l2.517333 3.584c4.522667-4.906667 9.472-9.173333 14.848-12.757333 2.730667 0.768 4.096 1.706667 4.266667 2.56l1.962666-0.128a160.853333 160.853333 0 0 1 44.245334-23.68l0.170666 1.92c-2.645333 4.010667-4.48 6.058667-5.461333 6.144a8.533333 8.533333 0 0 0 1.194667 3.626667c0.213333 2.517333-6.272 19.2-19.626667 50.176-30.506667 71.68-56.064 124.757333-76.885333 159.189333a7.210667 7.210667 0 0 0 1.365333 2.816c5.12-1.237333 8.362667-2.517333 9.642667-3.712l0.896-0.085333 0.170666 1.877333 2.133334-0.128 1.92-0.981333c0.085333 0.512 0.725333 0.725333 2.048 0.682666l0.170666 2.048c0.170667 1.792-0.938667 4.693333-3.285333 8.618667-2.176 2.346667-4.48 7.296-6.912 14.805333l0.085333 0.981334 2.005334-0.128a119.893333 119.893333 0 0 0 18.858666-27.306667c24.234667-7.168 42.666667-14.08 55.424-20.906667 12.970667-1.109333 22.741333-4.48 29.44-10.069333l-0.085333-0.981333-4.949333 1.408-1.066667 0.085333-0.085333-0.981333c9.386667-1.365333 16-3.498667 19.584-6.272 18.346667-14.122667 32.256-24.234667 41.642666-30.122667 29.312-21.333333 42.965333-41.813333 41.301334-61.482667z m-5.034667 1.28l0.682667 7.68c-0.853333 1.877333-1.877333 2.858667-2.773334 2.986667l-1.152-13.098667c2.133333 0.768 3.2 1.536 3.242667 2.432zM52.053333 414.293333l-1.28 0.042667-0.213333-2.346667 5.248-0.426666 0.085333 1.194666a10.069333 10.069333 0 0 0-3.84 1.536z m-25.6 255.786667a16.213333 16.213333 0 0 0-8.106666-1.706667l-0.256-3.712c-0.170667-1.408 0.682667-2.389333 2.474666-2.773333 1.706667-0.170667 2.645333 1.066667 2.816 3.456 4.394667-5.376 6.826667-8.106667 7.253334-8.192l2.858666 1.152c-0.938667 7.594667-3.285333 11.477333-6.997333 11.776z m273.28-285.866667c-1.28 0.170667-3.84-3.84-7.594666-11.818666l-0.213334-2.346667c2.432-0.256 4.949333 3.712 7.594667 11.818667z m-3.626666-28.288l-1.066667 2.517334-37.12-15.488c24.746667 0.853333 37.504 5.12 38.186667 12.970666z m-156.714667 134.528l-5.248 0.426667-0.213333-2.304 5.248-0.469333z m-4.266667-80.810666l1.28-0.085334 0.341334 3.712c-1.237333 0.085333-2.816 1.92-4.778667 5.418667l-0.213333-2.56c2.346667-2.858667 3.541333-4.949333 3.413333-6.485333z m-10.965333 25.941333l0.426667 4.949333-1.28 0.085334-0.426667-4.949334z m-5.802667 9.258667l2.56-0.213334c-0.256 4.096-1.408 6.314667-3.413333 6.442667l-1.322667 0.085333c1.578667-2.730667 2.346667-4.864 2.218667-6.314666z m-4.266666 12.928l1.408-0.170667 0.085333 1.194667-2.346667 3.968-2.517333 0.213333-0.085333-1.194667c2.517333-0.256 3.669333-1.536 3.413333-4.010666z m-4.266667 11.605333l-0.768 6.229333-1.28 0.042667-0.554667-6.144z m-42.581333 121.002667c-1.706667 8.533333-3.498667 12.8-5.376 12.970666l-0.085334-1.194666c-0.469333-4.181333 1.365333-8.106667 5.461334-11.776z m-7.808 16.938666l0.085333 1.194667c0.170667 1.706667-0.64 2.688-2.304 2.730667l-0.085333-1.194667c-0.170667-1.450667 0.64-2.346667 2.304-2.730667z m-2.304 35.114667l3.968-0.384 0.170666 1.365333a10.24 10.24 0 0 0-3.882666 1.536l-2.517334 0.213334c-0.170667-1.28 0.682667-2.261333 2.304-2.730667z m112.298666-34.645333c-22.144 10.922667-35.2 18.346667-39.082666 22.186666-23.978667 8.362667-35.84 13.525333-35.626667 15.573334-21.333333 8.448-35.413333 14.634667-42.112 18.517333a15.104 15.104 0 0 1-6.912-1.792c-0.426667-4.352 1.578667-7.850667 5.76-10.666667a22.4 22.4 0 0 1 10.666667 1.706667 104.106667 104.106667 0 0 1 20.650666-6.784l-0.213333-2.56-7.893333 0.682667c0.981333-1.365333 8.576-4.949333 22.869333-10.666667l3.925333-0.426667 0.085334 1.237334c-6.741333 0.597333-10.453333 2.56-11.306667 6.144 0.170667 1.578667 1.066667 2.261333 2.730667 2.133333 5.12-3.2 7.594667-5.12 7.509333-5.632 9.642667-1.834667 36.266667-15.786667 79.914667-41.813333l0.213333 2.346666c0.085333 1.152-3.626667 4.352-11.136 9.813334z m-66.901333 21.973333a25.856 25.856 0 0 0 16.384-7.594667c1.834667-0.128 2.816 0.554667 2.858667 2.133334-3.072 0.298667-9.088 2.901333-17.792 7.893333l-1.28 0.085333z m107.946667-82.901333l-33.450667 26.453333c-24.874667 16.341333-38.229333 24.533333-40.106667 24.661333-39.637333 21.76-64.298667 33.109333-73.856 33.92l-1.450666 0.170667c1.237333-4.48 18.816-40.533333 52.949333-108.373333 15.061333-1.28 38.698667-8.277333 70.954667-21.034667l7.893333-0.682667c16.341333-1.408 28.544 1.749333 36.565333 9.386667l0.469334 4.906667c-6.058667 17.450667-12.757333 27.605333-19.968 30.592zM145.066667 509.994667l5.418666-0.426667 0.085334 1.194667-5.418667 0.426666z m75.690666-12.8l3.925334-0.426667c3.626667 1.749333 5.546667 3.285333 5.674666 4.650667l0.085334 1.194666c-3.456 0.341333-6.741333-1.493333-9.685334-5.461333z m10.666667-60.970667c-3.498667 4.181333-13.056 11.306667-28.672 21.333333-5.12 0.426667-24.32 7.893333-57.6 22.442667a10.496 10.496 0 0 0-5.290667-0.853333l-0.213333-2.389334c-0.426667-4.778667 1.706667-10.794667 6.4-18.048 2.602667-13.653333 5.418667-21.504 8.533333-23.381333l27.733334-62.293333c-0.341333-3.84 5.546667-6.826667 17.706666-8.874667l3.968-0.426667 0.298667 3.584c11.946667-1.792 19.328-2.858667 22.186667-3.072 22.058667-1.92 33.493333 2.56 34.432 13.226667l2.474666-0.170667-0.512-6.314666 2.730667-0.213334c6.4 3.541333 9.941333 7.893333 10.368 12.970667 0.298667 3.498667-1.578667 7.808-5.589333 12.970667-1.706667 0.128-2.645333-1.066667-2.816-3.498667l-2.730667 0.213333-0.597333 7.594667c-11.178667 16.682667-19.285333 25.258667-24.32 25.728-4.522667 6.314667-7.338667 9.386667-8.448 9.472z m17.024 43.648c-2.304-1.536-4.096-2.218667-5.461333-2.133333l-0.298667-3.712 2.474667-0.213334 5.546666 3.242667c0.213333 1.749333-0.512 2.645333-2.261333 2.816z m17.578667 20.864c2.432 0.981333 3.882667 2.048 4.181333 3.029333l-1.194667 0.298667 0.085334 0.085333a2.773333 2.773333 0 0 0-0.768 0.170667l-1.834667 1.408z m1.706666 10.453333l-0.256-0.981333 3.2-0.725333 0.213334 0.981333z m7.637334 8.576c3.242667-0.512 4.864-0.725333 10.922666-2.133333l0.213334 1.024-11.52 2.645333a12.714667 12.714667 0 0 0 0.384-1.536z m11.221333 4.778667c-4.864 0.469333-3.797333-0.128-11.52 1.621333l-0.213333-0.981333 9.642666-3.114667 4.608-1.066666 0.426667 1.834666c-2.005333 0.426667-0.512 0.426667-2.901333 1.706667z m10.24-2.389333c-1.109333 0.298667-2.048-0.256-2.56-1.536l2.986667-0.682667c1.28-0.298667 2.090667 0.213333 2.389333 1.536z m27.776-29.909334l-0.213333-0.981333 4.778666-1.152 0.426667 1.834667z m29.696 181.930667a7.210667 7.210667 0 0 0 0.213333-2.986667l1.024-0.256c1.28-0.298667 2.048 0.170667 2.389334 1.365334l0.213333 0.981333z m20.778667-174.122667l-2.133334-0.384a60.16 60.16 0 0 1-8.661333 2.901334l-1.962667 0.426666c-1.152 0.298667-2.048-0.128-2.517333-1.365333l13.909333-3.157333 4.565334-2.133334 1.493333 1.706667a10.154667 10.154667 0 0 0-4.693333 2.005333z m10.666666-3.413333l-0.170666-0.981333a5.845333 5.845333 0 0 0 2.56-1.706667l9.856-2.261333 0.213333 0.981333c-5.205333 1.28-9.386667 2.56-12.416 3.968z m1.536-19.968a8.106667 8.106667 0 0 0-2.730666 1.706667c-0.170667-0.725333-1.493333-0.725333-4.096-0.085334-0.426667-1.92 6.826667-4.565333 21.930666-8.064l2.133334-0.426666 0.426666 1.792c-10.581333 3.114667-16.512 4.864-17.664 5.12zM413.866667 448c-1.066667 12.074667-5.333333 18.901333-12.8 20.650667l-0.256-0.981334-6.656 2.56-2.986667 0.682667a7.424 7.424 0 0 1-4.096-0.085333l-0.597333-2.645334c-0.213333-0.981333 9.386667-14.336 29.013333-39.978666l2.261333 0.384c0.853333 3.456-0.469333 9.941333-3.882666 19.413333z m46.933333-40.234667l-0.853333 0.085334-0.213334-1.877334 3.968-0.426666 0.085334 1.024a12.8 12.8 0 0 0-2.986667 1.194666z m-19.328 194.346667a12.16 12.16 0 0 0-6.058667-1.365333l-0.213333-2.901334c-0.085333-0.981333 0.512-1.664 1.792-2.048 1.28-0.128 2.048 0.768 2.218667 2.730667a33.28 33.28 0 0 1 5.461333-6.272l2.048 0.853333c-0.768 5.76-2.517333 8.789333-5.248 9.002667z m207.445333-217.002667c-0.981333 0.042667-2.858667-2.986667-5.845333-9.130666l-0.170667-1.877334c1.92-0.170667 3.882667 2.816 5.845334 8.874667z m-2.730666-21.717333l-0.896 1.962667-28.074667-11.733334c18.773333 0.597333 28.458667 3.84 29.013333 9.770667z m-119.04 102.229333l-3.968 0.341334-0.170667-1.877334 3.968-0.298666z m-3.285334-61.44l1.066667-0.042666 0.213333 2.901333c-0.981333 0.042667-2.176 1.408-3.626666 4.096l-0.170667-1.92c1.706667-2.176 2.56-3.84 2.517333-4.992z m-8.234666 19.754667l0.298666 3.712-1.066666 0.085333-0.298667-3.712z m-4.48 7.082667l1.962666-0.170667c-0.213333 3.2-1.066667 4.864-2.517333 4.992l-1.066667 0.085333a10.325333 10.325333 0 0 0 1.621334-4.906666z m-3.2 9.685333l0.896-0.085333 0.085333 1.024-1.706667 2.986666-2.005333 0.170667-0.085333-0.981333c2.048-0.128 2.986667-1.194667 2.816-3.114667z m-3.2 8.832l-0.682667 4.821333-0.896 0.085334-0.426667-4.778667z m-32.426667 92.032c-1.28 6.4-2.602667 9.642667-4.053333 9.813333l-0.085334-0.853333c-0.213333-3.2 1.152-6.229333 4.181334-8.96z m-5.973333 12.8l0.085333 0.853333c0.170667 1.365333-0.426667 2.133333-1.792 2.176l-0.085333-0.981333c-0.085333-0.981333 0.512-1.664 1.792-2.048z m-1.664 26.709333l3.029333-0.213333 0.085333 0.981333a8.789333 8.789333 0 0 0-2.986666 1.152l-1.92 0.128c-0.085333-1.024 0.512-1.706667 1.792-2.048z m85.205333-26.325333c-16.64 8.277333-26.624 13.909333-29.738667 16.768-18.218667 6.4-27.221333 10.325333-27.093333 11.946667-16.128 6.4-26.752 11.093333-31.786667 13.994666a11.818667 11.818667 0 0 1-5.248-1.408c-0.298667-3.285333 1.237333-5.930667 4.437334-7.893333a17.152 17.152 0 0 1 8.106666 1.194667c3.029333-1.493333 8.277333-3.157333 15.701334-5.077334l-0.170667-1.877333-6.229333 0.426667c0.768-1.066667 6.613333-3.797333 17.493333-8.192l2.986667-0.213334 0.085333 0.853334c-5.12 0.426667-8.021333 1.962667-8.618667 4.693333 0.085333 1.194667 0.853333 1.792 2.133334 1.664 3.754667-2.517333 5.589333-3.968 5.589333-4.394667 7.253333-1.28 27.477333-11.946667 60.629333-31.786666l0.170667 1.877333c0.085333 0.853333-2.730667 3.242667-8.405333 7.424z m-50.816 16.682667a20.352 20.352 0 0 0 12.586667-5.674667c1.28-0.128 2.048 0.426667 2.133333 1.706667-2.261333 0.213333-6.741333 2.090667-13.525333 5.717333l-1.066667 0.085333z m82.090667-63.018667l-25.258667 20.309333c-18.901333 12.373333-29.141333 18.602667-30.72 18.773334-30.08 16.512-48.725333 25.088-56.106667 25.685333l-1.066666 0.085333c0.938667-3.413333 14.378667-30.805333 40.32-82.261333 11.306667-0.981333 29.226667-6.357333 53.76-16.085333l6.186666-0.512c12.373333-1.066667 21.632 1.365333 27.690667 7.210666l0.298667 3.712c-4.650667 13.056-9.642667 20.736-15.104 23.04z m-49.621334-27.946667l3.968-0.384 0.085334 0.981334-3.968 0.426666z m57.429334-9.813333l3.029333-0.213333c2.816 1.365333 4.266667 2.56 4.352 3.584l0.085333 0.853333c-2.645333 0.213333-5.162667-1.152-7.466666-4.181333z m7.978666-46.165333c-2.645333 3.157333-9.856 8.618667-21.632 16.213333-3.925333 0.426667-18.517333 5.973333-43.690666 16.938667a9.984 9.984 0 0 0-4.010667-0.554667l-0.170667-1.877333c-0.298667-3.626667 1.28-8.192 4.778667-13.738667 1.962667-10.453333 4.138667-16.298667 6.4-17.664l21.205333-47.36c-0.213333-2.816 4.266667-5.12 13.354667-6.826667l3.029333-0.213333 0.213334 2.858667c8.96-1.450667 14.549333-2.261333 16.853333-2.517334 16.682667-1.408 25.429333 1.92 26.112 10.112l1.962667-0.170666-0.426667-4.522667 2.005333-0.170667c4.864 2.645333 7.424 5.845333 7.722667 9.642667 0.213333 2.730667-1.109333 6.058667-4.010667 9.941333-1.28 0.170667-2.048-0.768-2.176-2.730666l-2.005333 0.128-0.597333 5.717333c-8.405333 12.8-14.549333 19.413333-18.432 19.712-3.413333 4.650667-5.546667 6.997333-6.528 7.082667z m8.874667 31.573333l-0.213333-2.901333 1.962666-0.170667 4.266667 2.56c0.085333 1.28-0.554667 1.92-1.834667 2.090667-1.792-1.152-3.157333-1.706667-4.181333-1.621334z m-353.194667 184.32l-2.005333 0.426667-1.664 1.450666c0.298667 1.194667 1.066667 1.664 2.346667 1.365334 1.28-0.298667 1.834667-1.066667 1.536-2.304z m-7.552-14.976l0.213334 0.981333c1.28-0.298667 1.834667-1.066667 1.536-2.261333l-0.213334-0.981333c-1.194667 0.298667-1.706667 1.066667-1.536 2.261333z m53.418667-127.104l2.304-0.512-0.426667-2.005333-2.304 0.554666z m688.554667 57.813333c-23.04 5.162667-25.941333 4.266667-30.805334 4.650667l0.170667 1.877333 2.133333-0.128 1.109334-0.085333-0.298667-0.256 2.56-0.981333c22.784-2.474667 25.472-1.578667 25.216-4.138667z m-124.202667 16.469334l0.170667 1.92h0.298666l-0.170666-1.92z m-14.293333-50.005334l-2.048-0.682666a34.304 34.304 0 0 0-2.432 7.893333l0.085333 0.853333c1.621333-0.085333 3.072-2.816 4.437333-8.064z m143.189333 33.152l0.170667 1.92 3.328 0.597334-0.170667-1.877334z m-157.013333 19.2l-5.12-0.597333-0.938667 1.962667 0.085333 0.981333 30.72-2.56-0.128-1.877333z m-13.952-67.285333l-0.085334-0.981333-1.024 0.085333-1.92 1.194667 1.066667 1.834666c1.450667-0.170667 2.133333-0.853333 1.962667-2.133333z m185.557333 34.133333l1.450667-0.128c0.853333-0.085333 1.194667-0.768 1.109333-2.005333l-0.853333-1.792a24.576 24.576 0 0 0-11.904 2.986667l-0.085334-0.938667-6.272 0.597333c-0.170667-1.92-0.682667-2.901333-1.536-2.816l-3.242666 0.298667c-3.84 0.298667-5.632 0.170667-7.509334 1.621333-0.085333-0.725333-0.298667-1.024-0.682666-1.024l-3.669334 0.298667-2.133333 1.237333c-0.085333-0.682667-0.298667-0.981333-0.682667-0.981333l-1.28 1.109333-0.085333-0.981333-5.077333-0.384-1.194667 0.085333 0.170667 1.92 2.56 0.682667 2.432-0.170667c0.853333 0.554667 1.706667 0.682667 2.816 0.597334l2.133333-1.066667 0.085333 0.853333c-11.946667 2.986667-11.861333 2.432-20.053333 3.797334-0.896-0.597333-1.578667-0.896-2.048-0.853334l-0.170667 0.170667c-0.896-0.085333-1.450667-0.682667-1.536-1.706667l4.266667-0.512c0.298667 0 0.512 0.341333 2.901333 0.768 3.413333-1.664 3.541333-2.346667 5.376-2.474666l-0.170666-1.92c-11.690667 2.261333-6.997333 0.768-21.632 2.048l-0.682667 0.085333-0.170667-1.92c18.816-2.261333 12.544-0.981333 18.986667-2.773333 0.085333 0.682667 0.298667 0.981333 0.682667 0.981333a4.394667 4.394667 0 0 1 2.56-1.28l1.28-0.085333c6.613333-0.554667 8.832 0.725333 21.888-2.901334l0.085333 0.853334 2.133333-1.066667 1.962667-0.170667c-0.170667-1.877333 2.730667-2.176 3.712-2.261333l-0.170667-2.048c-22.912 4.608-28.928 3.328-35.285333 5.12l-0.085333-0.810667c-5.973333 1.066667-6.229333 0.597333-7.765334 0.682667a4.010667 4.010667 0 0 0-1.877333 1.237333c-0.085333-0.682667-0.298667-0.981333-0.768-0.981333l-0.384 0.042667-19.413333 3.2c-0.085333-0.512-0.298667-0.853333-0.768-0.768-10.112 2.133333-7.381333 2.517333-20.906667 3.712a6.4 6.4 0 0 0-2.474667 1.066666c-0.085333-0.512-0.384-0.853333-1.066666-0.768l-8.277334 0.682667-5.546666 1.408c-0.042667-0.554667-0.341333-0.853333-1.024-0.768a40.533333 40.533333 0 0 1-8.064 1.493333h-0.170667c-1.365333 0.170667 0.682667-0.384-0.384-0.853333l-1.664 1.024c-2.432 0.213333-1.152-0.170667-9.472-0.085333-14.634667 1.834667-13.056 2.048-14.634667 2.133333l-5.504-0.384c0.085333 0.512-0.213333 0.896-0.853333 0.896-6.186667-0.853333-9.386667-1.792-9.429333-2.986667 0.853333-5.888 2.261333-8.917333 4.266666-9.045333l1.109334-0.085333-0.938667 1.962666 1.066667-0.085333c2.005333-1.066667 2.901333-2.048 2.816-2.986667l-0.170667-2.005333-1.962667 0.128-0.170666-1.877333a6.741333 6.741333 0 0 1 0.597333-3.797334l4.48-7.210666 0.170667 1.92 2.133333-0.170667-0.170667-1.92-1.237333-1.706667c1.621333-1.365333 2.816-2.133333 3.84-2.218666l-0.128-0.981334-2.858667 0.213334-0.213333-2.858667c5.76-11.989333 8.490667-18.986667 8.32-20.949333l2.048 0.853333c1.28-0.128 1.92-0.853333 1.834667-2.218667l-1.962667 0.128-0.085333-0.853333a7.253333 7.253333 0 0 1 0.768-3.968c3.114667-3.285333 4.522667-6.528 4.266666-9.941333 0.554667-0.085333 0.853333 0.213333 0.938667 0.853333 2.688-1.493333 4.693333-5.504 6.229333-12.16 4.693333-8.533333 11.392-25.514667 20.138667-50.944 16.64-44.928 16-49.706667 18.346667-60.330667l-1.962667 0.170667a6.826667 6.826667 0 0 1-0.768 3.84 7.808 7.808 0 0 0-3.2-0.725333l-0.085333-0.853334c-0.298667-3.84 1.28-8.490667 4.949333-13.952l0.896-0.085333 1.706667 6.528 1.92-0.128a58.197333 58.197333 0 0 1 1.536-7.850667c-0.085333-0.981333-0.853333-1.578667-2.346667-1.664l-1.92 1.237334a95.573333 95.573333 0 0 1 0.170667-10.666667l-0.981334 0.128c-1.664-1.706667-2.474667-3.072-2.56-4.181333l-10.88 1.066666a10.24 10.24 0 0 0-1.194666-3.370666c-0.085333-0.981333 2.346667-1.962667 7.338666-2.944l2.218667 0.853333 2.048-1.237333c0.085333 0.682667 0.426667 0.981333 1.237333 0.938666l2.048-1.237333c0.085333 0.682667 0.426667 0.981333 1.194667 0.896l0.981333-0.042667-0.170666-2.218666c-1.493333 0.170667-5.546667 0.170667-11.946667-0.085334l-2.005333 1.365334-0.085334-1.194667c-50.901333 4.181333-79.829333 6.528-86.741333 7.210667a194.133333 194.133333 0 0 1-10.752-0.170667c0.085333 0.853333-0.682667 1.28-2.218667 1.450667l-2.218666-0.981334-7.424 1.877334c-1.706667 0.170667-4.693333 0.085333-8.789334-0.384a7.552 7.552 0 0 1-4.181333 1.621333c-0.896 0.085333 10.837333-0.597333 21.76-1.365333a9.984 9.984 0 0 1-5.290667 1.664 7.253333 7.253333 0 0 1-4.309333-0.768 123.306667 123.306667 0 0 1-16.085333 3.797333l-2.218667-0.853333-35.498667 5.461333a8.874667 8.874667 0 0 0-4.778666-0.725333c-1.92 0.128-5.12 0.853333-9.514667 2.048l-17.152 7.125333 1.28 2.133333a9.472 9.472 0 0 0 3.498667-1.365333l6.101333 0.512-0.768 5.717333c-5.632 2.474667-8.874667 6.186667-9.813333 10.922667-8.405333 3.712-12.586667 6.357333-12.586667 7.936l0.085333 0.981333 1.28-0.042666 2.304-1.237334 2.645334 3.2 0.384 4.394667c0.170667 1.365333-14.037333 31.189333-42.410667 89.472-24.576 56.149333-37.504 86.869333-38.698667 92.416-8.448 2.346667-13.269333 5.76-14.72 10.325333 0.170667 1.450667 2.645333 2.432 7.509334 2.816l0.213333 2.176-2.218667 3.669334 0.426667 4.394666c0.170667 2.261333 6.357333 4.010667 18.389333 5.205334-0.085333-0.725333 0.298667-1.194667 1.152-1.28 0.213333 2.730667-0.512 8.064-2.261333 15.957333l1.28-0.085333c4.992-6.826667 7.381333-11.52 7.125333-14.08l1.066667-0.128c1.194667-0.085333 2.517333 1.28 4.010667 4.266666-1.493333 0.597333-6.826667 12.672-15.914667 36.266667l1.28 2.133333 1.28-0.085333c11.178667-28.245333 18.133333-43.861333 21.034667-46.805333 14.634667-1.28 39.978667-3.882667 75.946666-7.765334l2.304-1.365333c0.085333 0.768 0.512 1.152 1.365334 1.066667l2.346666-0.213334 2.261334-1.365333c0.085333 0.768 0.512 1.152 1.365333 1.066667l27.221333-2.346667c7.253333-0.64 10.666667-2.816 10.325334-6.528-0.085333-0.981333 4.181333-2.133333 12.757333-3.370667a10.410667 10.410667 0 0 1 3.712 0.682667c-0.085333-0.682667 4.266667-1.365333 12.885333-2.133333 0.213333-4.522667 1.706667-6.954667 4.266667-7.168l-0.213333-2.218667a37.632 37.632 0 0 0-8.362667 1.92 51.072 51.072 0 0 1-10.837333-1.28 10.026667 10.026667 0 0 1-3.498667 1.322667l-18.944 0.64-2.304 1.194666c-0.085333-0.682667-0.512-0.981333-1.365333-0.896l-1.066667 0.042667-2.389333 1.237333c-0.085333-0.682667-2.048-1.237333-6.016-1.749333l-2.432 1.450667-4.693334 0.384-0.085333-1.237334c24.448-2.645333 36.48-5.973333 36.181333-9.941333 1.621333-0.128 2.432 0.64 2.56 2.218667l7.168-1.834667-0.213333-2.176-58.496 1.578667c0.085333 0.768-0.298667 1.194667-1.152 1.28l-7.125333-0.597334a8.618667 8.618667 0 0 0-4.565334 1.578667l-2.645333-0.981333a82.773333 82.773333 0 0 0-16.469333 2.645333 103.893333 103.893333 0 0 0-16.682667 0.256l-13.141333 1.109333-6.058667-0.682666c-0.298667-3.84 7.210667-22.912 22.656-57.045334 4.48-11.52 8.576-18.773333 12.544-21.461333a8.789333 8.789333 0 0 1 3.712 0.896l9.344-3.2 4.778667 0.768c8.021333-0.682667 17.365333-2.986667 28.074666-6.912a13.141333 13.141333 0 0 1 6.058667 0.554667l7.125333-1.706667 21.248-1.792a142.506667 142.506667 0 0 0 29.44-5.973333l-0.213333-2.218667c-3.925333 0.384-5.973333-0.298667-6.144-1.92-0.213333-2.944-3.114667-4.138667-8.661333-3.712l-0.213334-2.176 5.845334-1.706667 15.36-1.28-0.213334-2.176a139.093333 139.093333 0 0 1-9.514666-0.213333l-0.213334-2.389333 5.930667-0.512c1.578667-0.170667 2.261333-0.896 2.133333-2.432-7.978667 0.213333-11.989333-0.170667-12.074666-1.194667-55.552 2.730667-83.370667 3.242667-83.541334 1.493333a9.557333 9.557333 0 0 0-3.498666 1.536l-1.450667-2.304c14.72-31.232 23.381333-47.018667 25.898667-47.274666a13.013333 13.013333 0 0 1-1.92 5.845333l0.085333 0.981333 2.346667-0.213333c5.845333-13.952 10.794667-21.162667 14.890666-21.461333 17.450667-1.536-2.432-2.645333 34.901334-8.533334 1.536 0.725333 2.56 1.024 3.328 0.938667 14.634667-2.986667 35.072-6.058667 61.226666-9.258667l-0.170666-2.218666-13.952 1.28-0.170667-2.133334a7.594667 7.594667 0 0 0 4.181333-1.621333l0.085334 1.194667a8.234667 8.234667 0 0 0 3.2-1.493334c2.432-0.256 4.266667 0 5.546666 0.682667a80.64 80.64 0 0 1 11.648-2.346667l8.746667-0.853333c2.133333-1.365333 3.114667-2.56 3.029333-3.712l-0.085333-0.981333a27.562667 27.562667 0 0 1-7.68-0.426667c-0.085333-1.28 0.554667-2.090667 2.005333-2.474667l16.213334-1.493333 7.466666-1.92c0.085333 0.853333 0.426667 1.152 1.024 1.152a8.234667 8.234667 0 0 0 3.2-1.536l1.237334 0.170667a61.44 61.44 0 0 0-3.285334 8.874666l-2.133333 0.170667a9.557333 9.557333 0 0 0-1.194667-3.882667l-1.066666 0.085334c-19.712 54.912-28.544 80.512-46.762667 122.666666-3.328 10.794667-6.144 16.768-8.533333 18.090667 0.085333 1.194667 0.853333 1.792 2.133333 1.664a26.453333 26.453333 0 0 1-3.754667 15.701333c-8.405333 24.277333-14.037333 37.546667-16.896 39.978667l1.877334 11.477333c0.085333 1.194667-0.512 1.877333-1.834667 2.048L810.666667 549.973333c-0.298667-3.157333-1.450667-4.693333-3.498667-4.48l-1.066667 0.085334c-2.56 4.010667-4.522667 8.661333-5.845333 14.08l2.005333-0.170667c2.645333-1.749333 3.84-3.84 3.626667-6.186667l3.968-0.341333 2.261333 0.853333c-1.834667 2.858667-2.645333 5.12-2.517333 6.869334l1.066667 1.834666-2.56 6.058667 0.085333 0.981333a12.373333 12.373333 0 0 1 7.424 2.133334 13.354667 13.354667 0 0 0 5.973333-2.432c2.304-0.213333 10.794667-0.298667 25.429334-0.298667l7.381333-2.517333c8.96-0.085333 10.368 0.170667 18.133333-0.512l3.157334-0.298667 1.706666-1.152 0.085334 0.981333c8.106667-0.682667 8.618667-0.170667 15.018666 0.597334l0.085334 0.981333-4.48 0.426667 0.170666 1.877333a6.442667 6.442667 0 0 0 3.541334-1.365333c1.152-0.085333 1.834667 0.512 1.92 1.877333a26.837333 26.837333 0 0 0-6.144 1.365333l-1.962667-0.682666c-3.114667 0.853333-2.432 1.066667-4.565333 1.237333l-3.114667-0.64c0.085333 0.554667-0.213333 0.938667-0.768 0.938667 0.085333 1.194667 0.768 1.792 1.92 1.706666l3.157333-0.256 16.64-1.450666 6.272-1.365334c0.085333 0.512 0.298667 0.853333 0.853334 0.768l3.029333-1.152 5.717333-0.426666c4.394667-0.426667 4.266667-0.725333 13.866667-2.218667-0.085333-0.64 0.170667-0.853333 0.597333-0.938667l0.085334 0.853334c15.573333-2.645333 16.554667-2.816 19.072-3.669334l0.213333 0.469334c3.84-0.896 1.664-0.682667 2.730667-1.450667 0.085333 0.682667 0.298667 0.981333 0.682666 0.981333l2.730667-0.213333-0.170667-2.048-5.546666-0.085333-0.085334-0.128-0.597333 0.128h-0.768v0.170666c-3.712 0.768-3.84 0.213333-6.229333 0.426667l-13.909334 0.768-0.085333-0.981333 7.765333-1.066667 2.816-0.213333 1.578667-1.152 0.085333 1.024c10.922667-0.938667 14.805333 1.792 65.322667-8.96 2.730667-0.256 2.517333-2.517333 4.266667-7.253334a4.693333 4.693333 0 0 1-2.645334-0.554666c-4.181333 1.578667-6.4 0.853333-14.421333 2.133333-0.682667 0.042667-1.237333-0.554667-1.450667-1.792l-0.085333-0.853333 7.722667 0.256a19.370667 19.370667 0 0 0 8.448-2.730667c0 0.682667-1.536 1.066667-0.597334 0.981333z m-373.632 5.973334l-3.584 0.341333c-0.170667-1.450667 1.749333-6.912 5.674667-16.213333l2.389333-0.256c0.085333 2.176-1.365333 7.594667-4.48 16.170666z m4.309333-17.28l-0.085333-0.981334c-0.085333-1.194667 0.682667-2.048 2.346667-2.432l0.085333 0.981334c0.085333 1.450667-0.682667 2.304-2.346667 2.432z m47.445334 36.693333l0.085333 0.938667-5.973333 0.554666-0.042667-0.981333z m-7.168-0.64c0.085333 1.194667-1.706667 2.56-5.674667 3.925333l-7.253333-0.512-2.389334 0.213334-0.213333-2.176z m47.957333-220.757333l-3.541333 0.341333-0.085334-1.237333c-0.085333-1.194667 0.597333-2.048 2.133334-2.432l1.28-0.085334 2.432 0.981334c0.085333 1.450667-0.64 2.304-2.218667 2.432z m54.272-10.624l1.152-0.042667 0.170667 2.176-3.285334 0.298667c-0.085333-1.194667 0.554667-2.048 1.962667-2.432z m-13.653333 4.778666l-5.376-0.597333-0.085334-0.981333c7.04-0.597333 9.386667-1.365333 13.696-2.56 0.085333 0.853333 0.853333 1.109333 2.218667 0.981333l0.170667 2.176-2.133334 0.256a7.253333 7.253333 0 0 1-4.309333-0.768 9.258667 9.258667 0 0 1-4.181333 1.493333z m6.741333 19.669334l-0.085333-0.981334 8.746666-0.853333 0.085334 1.024z m9.344-7.594667l-0.085333-1.194667 4.266666-0.426666 0.042667 1.28z m0.981333-14.848l-1.152 0.042667 0.981334-2.346667 9.728-0.896 0.085333 1.194667a58.453333 58.453333 0 0 0-9.642667 2.005333z m4.949334 20.906667l-0.170667-2.176 4.266667-0.384c1.408-0.170667 2.133333 0.554667 2.218666 2.048z m25.685333-35.029334l-5.461333 1.493334-0.981334 0.085333c-2.56 0.256-5.888 0.170667-9.813333-0.213333 7.04-0.426667 13.781333-0.981333 16.256-1.365334z m-5.802667 24.277334l0.085334 0.981333-7.552 0.682667-0.085334-0.981334z m12.288 5.845333c-0.085333-0.896-1.536-1.536-4.48-1.834667l-7.509333 2.133334-5.802667 0.213333c-1.28-0.896-1.962667-1.493333-2.048-1.962667l6.698667 0.384 15.018667-2.432 7.68 0.298667 0.085333 1.237333a43.008 43.008 0 0 0-9.642667 1.962667z m77.312-19.968l1.706667 0.085333a29.098667 29.098667 0 0 1 9.045333-6.058666c-2.730667 11.946667-6.954667 20.864-12.8 26.624l-4.266666-2.56a138.666667 138.666667 0 0 0 6.314666-18.090667z m-13.056 22.4l1.066667-0.085333c-1.450667 2.730667-2.730667 4.181333-3.797333 4.266666l-0.213334-2.901333c0.682667 0 1.706667-0.426667 2.986667-1.28z m-8.405333 20.096c2.048-8.192 4.010667-12.8 5.845333-14.037333l0.085334 0.981333c-1.066667 7.594667-2.730667 11.605333-4.949334 11.946667l0.384 4.736c-1.834667 2.602667-2.645333 4.565333-2.56 6.101333l-1.066666 0.085333-0.64-6.613333c1.237333-0.170667 2.218667-1.237333 2.901333-3.2z m-3.285333 10.922667a27.306667 27.306667 0 0 1-2.218667 7.893333l-1.024 0.085333-0.213333-2.901333c1.408-3.328 2.645333-4.992 3.456-5.077333z m-61.226667 177.706666l-0.085333-0.853333 1.962666-0.128 0.213334 2.901333c-1.066667 0.085333-1.834667-0.554667-2.133334-1.92z m87.466667 2.304c-0.085333-0.682667-0.384-0.981333-1.024-0.938666l-4.949334 0.469333-0.085333-0.981333h0.426667l11.690666-0.981334 0.085334 0.981334c-3.413333 0.128-5.461333 0.682667-6.144 1.450666z m-5.845334-2.432c0.469333 0.213333 0.213333 0.426667 0 0.597334-0.213333-0.085333-0.512-0.298667 0-0.597334z m0.64-13.653333l-6.528 0.512-0.085333-0.981333 5.888-0.512 5.162667-1.28c0.085333 0.597333 0.426667 0.810667 1.066666 0.725333 6.144-1.066667 5.546667-1.365333 8.533334-1.578667 0.981333-0.085333 1.578667 0.512 1.664 1.706667z m22.826667-2.005333c-3.626667-0.341333-3.84-0.682667-6.442667-0.426667l-0.085333-0.853333 5.845333-0.512 0.085334 0.853333c-0.597333 0.042667 1.578667 0.213333 0.597333 0.938667z m0.426667-1.024l-0.042667-0.853334 3.157333-0.298666 0.085334 0.853333z m7.082666-0.64l-0.085333-0.853334a5.546667 5.546667 0 0 0 2.261333-1.194666c1.621333-0.128 2.432 0.938667 2.602667 2.133333z m9.045334-1.109334l-0.085334-1.024 3.84-0.298666 0.085334 0.981333z m5.376-0.469333c-0.085333-1.152 0.384-1.834667 1.365333-1.962667l1.28 1.664c-0.085333-0.554667 0.170667-0.853333 0.597333-0.938666l0.981334 1.834666z m-57.301334 24.746667l-0.170666-1.92-0.597334 0.085333 0.170667 1.877333z m133.333334-34.56c0.597333-0.341333 0.896-0.725333-0.554667-0.981334-0.682667 0.768 0.768 1.024-0.725333 1.066667l0.085333 0.682667 0.853333-0.597334-0.853333 0.682667v0.085333l-1.621333 2.048 3.2-1.152h0.384l-0.170667-1.877333z m5.546666 4.352l-0.597333 0.085333 0.170667 1.877333 4.48-0.384c-0.085333-1.194667-3.072-1.578667-4.053334-1.578666z m-6.912-3.328l0.085334-0.085334v-0.085333l-0.085334 0.170667z" p-id="1619" fill="#f4ea29"></path></svg>