<svg xmlns="http://www.w3.org/2000/svg" x="0px" y="0px" width="48" height="48" viewBox="0 13 100 100">
<path fill="#c7ede6" d="M87.215,56.71C88.35,54.555,89,52.105,89,49.5c0-6.621-4.159-12.257-10.001-14.478	C78.999,35.015,79,35.008,79,35c0-11.598-9.402-21-21-21c-9.784,0-17.981,6.701-20.313,15.757C36.211,29.272,34.638,29,33,29	c-7.692,0-14.023,5.793-14.89,13.252C12.906,43.353,9,47.969,9,53.5C9,59.851,14.149,65,20.5,65c0.177,0,0.352-0.012,0.526-0.022	C21.022,65.153,21,65.324,21,65.5C21,76.822,30.178,86,41.5,86c6.437,0,12.175-2.972,15.934-7.614C59.612,80.611,62.64,82,66,82	c4.65,0,8.674-2.65,10.666-6.518C77.718,75.817,78.837,76,80,76c6.075,0,11-4.925,11-11C91,61.689,89.53,58.727,87.215,56.71z"></path><path fill="#fdfcef" d="M76.5,60.5V61h3v-0.5c0,0,4.242,0,5.5,0c2.485,0,4.5-2.015,4.5-4.5c0-2.333-1.782-4.229-4.055-4.455 C85.467,51.364,85.5,51.187,85.5,51c0-2.485-2.015-4.5-4.5-4.5c-1.438,0-2.703,0.686-3.527,1.736 C77.333,45.6,75.171,43.5,72.5,43.5c-2.761,0-5,2.239-5,5c0,0.446,0.077,0.87,0.187,1.282C67.045,49.005,66.086,48.5,65,48.5 c-1.781,0-3.234,1.335-3.455,3.055C61.364,51.533,61.187,51.5,61,51.5c-2.485,0-4.5,2.015-4.5,4.5s2.015,4.5,4.5,4.5s9.5,0,9.5,0 H76.5z"></path><path fill="#472b29" d="M72.5,43c-3.033,0-5.5,2.467-5.5,5.5c0,0.016,0,0.031,0,0.047C66.398,48.192,65.71,48,65,48 c-1.831,0-3.411,1.261-3.858,3.005C61.095,51.002,61.048,51,61,51c-2.757,0-5,2.243-5,5s2.243,5,5,5h15.5 c0.276,0,0.5-0.224,0.5-0.5S76.776,60,76.5,60H61c-2.206,0-4-1.794-4-4s1.794-4,4-4c0.117,0,0.23,0.017,0.343,0.032l0.141,0.019 c0.021,0.003,0.041,0.004,0.062,0.004c0.246,0,0.462-0.185,0.495-0.437C62.232,50.125,63.504,49,65,49 c0.885,0,1.723,0.401,2.301,1.1c0.098,0.118,0.241,0.182,0.386,0.182c0.078,0,0.156-0.018,0.228-0.056 c0.209-0.107,0.314-0.346,0.254-0.573C68.054,49.218,68,48.852,68,48.5c0-2.481,2.019-4.5,4.5-4.5c2.381,0,4.347,1.872,4.474,4.263 c0.011,0.208,0.15,0.387,0.349,0.45c0.05,0.016,0.101,0.024,0.152,0.024c0.15,0,0.296-0.069,0.392-0.192 C78.638,47.563,79.779,47,81,47c2.206,0,4,1.794,4,4c0,0.117-0.017,0.23-0.032,0.343l-0.019,0.141 c-0.016,0.134,0.022,0.268,0.106,0.373c0.084,0.105,0.207,0.172,0.34,0.185C87.451,52.247,89,53.949,89,56c0,2.206-1.794,4-4,4 h-5.5c-0.276,0-0.5,0.224-0.5,0.5s0.224,0.5,0.5,0.5H85c2.757,0,5-2.243,5-5c0-2.397-1.689-4.413-4.003-4.877 C85.999,51.082,86,51.041,86,51c0-2.757-2.243-5-5-5c-1.176,0-2.293,0.416-3.183,1.164C77.219,44.76,75.055,43,72.5,43L72.5,43z"></path><path fill="#472b29" d="M71,50c-1.403,0-2.609,0.999-2.913,2.341C67.72,52.119,67.301,52,66.875,52 c-1.202,0-2.198,0.897-2.353,2.068C64.319,54.022,64.126,54,63.937,54c-1.529,0-2.811,1.2-2.918,2.732 C61.01,56.87,61.114,56.99,61.251,57c0.006,0,0.012,0,0.018,0c0.13,0,0.24-0.101,0.249-0.232c0.089-1.271,1.151-2.268,2.419-2.268 c0.229,0,0.47,0.042,0.738,0.127c0.022,0.007,0.045,0.01,0.067,0.01c0.055,0,0.11-0.02,0.156-0.054 C64.962,54.537,65,54.455,65,54.375c0-1.034,0.841-1.875,1.875-1.875c0.447,0,0.885,0.168,1.231,0.473 c0.047,0.041,0.106,0.063,0.165,0.063c0.032,0,0.063-0.006,0.093-0.019c0.088-0.035,0.148-0.117,0.155-0.212 C68.623,51.512,69.712,50.5,71,50.5c0.208,0,0.425,0.034,0.682,0.107c0.023,0.007,0.047,0.01,0.07,0.01 c0.109,0,0.207-0.073,0.239-0.182c0.038-0.133-0.039-0.271-0.172-0.309C71.517,50.04,71.256,50,71,50L71,50z"></path><path fill="#472b29" d="M84.883,51.5c-1.326,0-2.508,0.897-2.874,2.182c-0.038,0.133,0.039,0.271,0.172,0.309 C82.205,53.997,82.228,54,82.25,54c0.109,0,0.209-0.072,0.24-0.182C82.795,52.748,83.779,52,84.883,52 c0.117,0,0.23,0.014,0.342,0.029c0.012,0.002,0.023,0.003,0.035,0.003c0.121,0,0.229-0.092,0.246-0.217 c0.019-0.137-0.077-0.263-0.214-0.281C85.158,51.516,85.022,51.5,84.883,51.5L84.883,51.5z"></path><path fill="#fff" d="M15.5,51h-10C5.224,51,5,50.776,5,50.5S5.224,50,5.5,50h10c0.276,0,0.5,0.224,0.5,0.5 S15.777,51,15.5,51z"></path><path fill="#fff" d="M18.5,51h-1c-0.276,0-0.5-0.224-0.5-0.5s0.224-0.5,0.5-0.5h1c0.276,0,0.5,0.224,0.5,0.5 S18.777,51,18.5,51z"></path><path fill="#fff" d="M23.491,53H14.5c-0.276,0-0.5-0.224-0.5-0.5s0.224-0.5,0.5-0.5h8.991c0.276,0,0.5,0.224,0.5,0.5 S23.767,53,23.491,53z"></path><path fill="#fff" d="M12.5,53h-1c-0.276,0-0.5-0.224-0.5-0.5s0.224-0.5,0.5-0.5h1c0.276,0,0.5,0.224,0.5,0.5 S12.777,53,12.5,53z"></path><path fill="#fff" d="M9.5,53h-2C7.224,53,7,52.776,7,52.5S7.224,52,7.5,52h2c0.276,0,0.5,0.224,0.5,0.5S9.777,53,9.5,53z"></path><path fill="#fff" d="M15.5,55h-2c-0.276,0-0.5-0.224-0.5-0.5s0.224-0.5,0.5-0.5h2c0.276,0,0.5,0.224,0.5,0.5 S15.776,55,15.5,55z"></path><path fill="#fff" d="M18.5,46c-0.177,0-0.823,0-1,0c-0.276,0-0.5,0.224-0.5,0.5c0,0.276,0.224,0.5,0.5,0.5 c0.177,0,0.823,0,1,0c0.276,0,0.5-0.224,0.5-0.5C19,46.224,18.776,46,18.5,46z"></path><path fill="#fff" d="M18.5,48c-0.177,0-4.823,0-5,0c-0.276,0-0.5,0.224-0.5,0.5c0,0.276,0.224,0.5,0.5,0.5 c0.177,0,4.823,0,5,0c0.276,0,0.5-0.224,0.5-0.5C19,48.224,18.776,48,18.5,48z"></path><path fill="#fff" d="M23.5,50c-0.177,0-2.823,0-3,0c-0.276,0-0.5,0.224-0.5,0.5c0,0.276,0.224,0.5,0.5,0.5 c0.177,0,2.823,0,3,0c0.276,0,0.5-0.224,0.5-0.5C24,50.224,23.776,50,23.5,50z"></path><path fill="#fff" d="M72.5,24h-10c-0.276,0-0.5-0.224-0.5-0.5s0.224-0.5,0.5-0.5h10c0.276,0,0.5,0.224,0.5,0.5 S72.776,24,72.5,24z"></path><path fill="#fff" d="M76.5,24h-2c-0.276,0-0.5-0.224-0.5-0.5s0.224-0.5,0.5-0.5h2c0.276,0,0.5,0.224,0.5,0.5 S76.776,24,76.5,24z"></path><path fill="#fff" d="M81.5,26h-10c-0.276,0-0.5-0.224-0.5-0.5s0.224-0.5,0.5-0.5h10c0.276,0,0.5,0.224,0.5,0.5 S81.777,26,81.5,26z"></path><path fill="#fff" d="M69.5,26h-1c-0.276,0-0.5-0.224-0.5-0.5s0.224-0.5,0.5-0.5h1c0.276,0,0.5,0.224,0.5,0.5 S69.776,26,69.5,26z"></path><path fill="#fff" d="M66.47,26H64.5c-0.276,0-0.5-0.224-0.5-0.5s0.224-0.5,0.5-0.5h1.97c0.276,0,0.5,0.224,0.5,0.5 S66.746,26,66.47,26z"></path><path fill="#fff" d="M75.5,22h-5c-0.276,0-0.5-0.224-0.5-0.5s0.224-0.5,0.5-0.5h5c0.276,0,0.5,0.224,0.5,0.5 S75.777,22,75.5,22z"></path><path fill="#fff" d="M72.5,28h-2c-0.276,0-0.5-0.224-0.5-0.5s0.224-0.5,0.5-0.5h2c0.276,0,0.5,0.224,0.5,0.5 S72.776,28,72.5,28z"></path><circle cx="52" cy="50" r="23" fill="#4792dd"></circle><path fill="#88bbed" d="M52,27c-12.652,0-22.914,10.216-22.996,22.848c0.591-4.384,2.802-9.217,7.54-9.564	c2.137-0.157,4.319-0.117,6.259,0.869c4.902,2.491,7.239,7.35,10.78,11.264c2.683,2.965,5.625,5.87,9.549,7.057	c2.369,0.716,5.027,0.677,7.228-0.541c1.888-1.045,3.102-2.905,4.243-4.692C74.86,52.865,75,51.449,75,50C75,37.297,64.703,27,52,27	z"></path><path fill="#c5def0" d="M52,27c-6.98,0-13.229,3.114-17.447,8.023c3.91-3.02,8.72-3.813,13.567-2.531	c4.149,1.097,7.188,5.321,9.401,8.752c1.284,1.991,2.569,3.789,4.431,5.78c1.862,1.991,3.982,3.468,5.715,3.981	c1.734,0.514,3.147,0.321,4.303-0.064c0.881-0.294,2.353-1.404,3.006-1.917C74.463,36.774,64.375,27,52,27z"></path><path fill="#edece6" d="M53.438,28.75c2.165,0.708,4.349,1.586,6.122,3.052c1.747,1.444,3.048,3.376,4.446,5.138	c1.581,1.993,3.119,4.311,5.201,5.821c1.282,0.93,3.495,1.996,4.905,0.914C71.364,34.05,62.508,27,52,27	c-2.49,0-4.886,0.401-7.132,1.133C47.767,27.742,50.488,27.785,53.438,28.75z"></path><path fill="#1e65d6" d="M52,73c8.06,0,15.147-4.149,19.254-10.424c-3.21,3.097-7.241,5.309-11.886,5.021	c-4.56-0.283-8.452-3.515-11.534-6.597c-2.483-2.483-4.506-5.533-7.398-7.578c-1.194-0.844-2.79-2.065-4.332-1.776	c-3.612,0.677-4.612,4.415-5.16,7.607C34.505,67.346,42.59,73,52,73z"></path><g><path fill="#472b29" d="M72.681,44.385c-1.499,0-3.031-0.994-3.621-1.421c-1.695-1.23-3.021-2.966-4.304-4.646 c-0.316-0.415-0.63-0.825-0.945-1.223c-0.303-0.382-0.602-0.772-0.902-1.164c-1.062-1.388-2.16-2.823-3.507-3.937 c-1.82-1.504-4.075-2.364-6.041-3.007c-1.731-0.566-3.475-0.842-5.332-0.842c-1.508,0-3.15,0.179-5.167,0.563 c-0.14,0.026-0.267-0.063-0.292-0.199s0.063-0.267,0.199-0.292c2.05-0.39,3.721-0.572,5.261-0.572c1.91,0,3.705,0.283,5.487,0.866 c2.011,0.658,4.32,1.54,6.204,3.097c1.391,1.15,2.507,2.608,3.586,4.018c0.298,0.39,0.595,0.777,0.896,1.158 c0.317,0.4,0.633,0.813,0.951,1.229c1.261,1.651,2.564,3.358,4.201,4.545c0.429,0.311,1.937,1.326,3.327,1.326 c0.732,0,1.31-0.29,1.718-0.861c0.081-0.112,0.237-0.138,0.349-0.059c0.113,0.08,0.139,0.236,0.059,0.349 C74.299,44.025,73.584,44.385,72.681,44.385z"></path></g><g><path fill="#472b29" d="M69.737,51.566c-0.698,0-1.418-0.108-2.141-0.323c-0.581-0.172-1.208-0.449-1.862-0.824 c-0.12-0.068-0.162-0.221-0.093-0.341c0.068-0.121,0.221-0.162,0.341-0.093c0.622,0.355,1.212,0.617,1.756,0.778 c1.424,0.422,2.758,0.405,4.152-0.062c1.099-0.366,3.238-2.122,3.259-2.139c0.107-0.088,0.264-0.073,0.352,0.034 c0.088,0.107,0.073,0.264-0.034,0.352c-0.091,0.075-2.233,1.833-3.419,2.228C71.266,51.439,70.509,51.566,69.737,51.566z M64.202,49.334c-0.054,0-0.107-0.017-0.153-0.052c-0.786-0.609-1.553-1.312-2.279-2.089c-2.004-2.142-3.327-4.061-4.458-5.814 c-0.691-1.07-1.619-2.465-2.677-3.769c-0.087-0.107-0.07-0.265,0.037-0.352c0.106-0.087,0.264-0.071,0.352,0.037 c1.073,1.323,2.011,2.733,2.708,3.813c1.119,1.735,2.427,3.631,4.404,5.744c0.708,0.757,1.455,1.442,2.221,2.035 c0.109,0.085,0.129,0.242,0.044,0.351C64.35,49.301,64.276,49.334,64.202,49.334z M53.506,36.2c-0.065,0-0.131-0.025-0.18-0.076 c-0.481-0.498-0.967-0.948-1.444-1.339c-0.107-0.087-0.123-0.245-0.035-0.352c0.087-0.107,0.245-0.123,0.352-0.035 c0.493,0.403,0.993,0.866,1.487,1.378c0.096,0.1,0.093,0.258-0.006,0.354C53.631,36.177,53.568,36.2,53.506,36.2z M33.632,36.035 c-0.068,0-0.137-0.028-0.186-0.083c-0.092-0.103-0.083-0.261,0.019-0.353c2.875-2.583,6.417-3.948,10.241-3.948 c1.302,0,2.638,0.159,3.97,0.472c0.134,0.031,0.218,0.166,0.186,0.3c-0.031,0.134-0.165,0.223-0.3,0.186 c-1.295-0.304-2.592-0.458-3.856-0.458c-3.699,0-7.125,1.321-9.907,3.82C33.751,36.014,33.691,36.035,33.632,36.035z"></path></g><g><path fill="#472b29" d="M66.244,60.195c-1.055,0-2.125-0.162-3.184-0.482c-4.081-1.233-7.127-4.326-9.662-7.128 c-1.09-1.205-2.078-2.513-3.033-3.778c-2.224-2.945-4.324-5.728-7.675-7.431c-0.778-0.395-1.633-0.654-2.612-0.793 c-0.137-0.02-0.232-0.146-0.212-0.283c0.02-0.136,0.145-0.229,0.283-0.212c1.035,0.146,1.94,0.422,2.769,0.842 c3.454,1.756,5.688,4.714,7.848,7.575c0.948,1.256,1.929,2.556,3.005,3.744c2.49,2.752,5.478,5.789,9.436,6.985 c1.011,0.306,2.034,0.461,3.039,0.461c1.475,0,2.819-0.33,3.996-0.981c1.875-1.039,3.074-2.916,4.232-4.731l0.234-0.367 c0.076-0.117,0.23-0.15,0.345-0.076c0.116,0.075,0.15,0.229,0.076,0.345l-0.234,0.366c-1.192,1.868-2.425,3.8-4.412,4.9 C69.23,59.844,67.805,60.195,66.244,60.195z M28.833,52.75c-0.137,0-0.248-0.11-0.25-0.247l-0.001-0.215 c0-5.621,2.486-11.854,7.944-12.254c0.594-0.043,1.114-0.066,1.591-0.069c0,0,0.001,0,0.002,0c0.137,0,0.249,0.111,0.25,0.248 c0.001,0.138-0.11,0.251-0.248,0.252c-0.466,0.003-0.976,0.026-1.559,0.068c-5.917,0.434-7.48,7.879-7.48,11.755l0.001,0.208 c0.002,0.138-0.108,0.251-0.247,0.253C28.836,52.75,28.834,52.75,28.833,52.75z"></path></g><g><path fill="#472b29" d="M60.181,67.873c-0.274,0-0.55-0.008-0.829-0.026c-4.75-0.295-8.746-3.72-11.695-6.67 c-0.885-0.885-1.723-1.854-2.534-2.792c-0.684-0.792-1.392-1.61-2.123-2.371c-0.096-0.1-0.093-0.258,0.007-0.354 c0.1-0.096,0.258-0.092,0.354,0.007c0.74,0.771,1.452,1.595,2.141,2.391c0.805,0.931,1.637,1.894,2.509,2.766 c2.888,2.888,6.79,6.24,11.373,6.524c1.469,0.092,2.912-0.069,4.335-0.472c0.134-0.035,0.271,0.04,0.309,0.173 c0.038,0.133-0.04,0.271-0.173,0.309C62.646,67.699,61.41,67.873,60.181,67.873z M65.666,66.689c-0.096,0-0.188-0.056-0.229-0.149 c-0.055-0.126,0.002-0.274,0.128-0.33c2.495-1.094,4.877-2.93,7.08-5.458c0.09-0.105,0.249-0.116,0.353-0.024 c0.104,0.091,0.115,0.249,0.024,0.353c-2.251,2.584-4.693,4.464-7.255,5.588C65.734,66.683,65.7,66.689,65.666,66.689z M30.834,60.167c-0.013,0-0.026-0.001-0.04-0.003c-0.136-0.022-0.229-0.15-0.208-0.287c0.561-3.514,1.451-7.347,4.936-8.35 c0.134-0.039,0.271,0.038,0.31,0.171c0.038,0.133-0.039,0.271-0.171,0.31c-3.204,0.922-4.044,4.586-4.581,7.949 C31.061,60.079,30.955,60.167,30.834,60.167z M41.74,54.704c-0.059,0-0.117-0.021-0.165-0.062 c-0.434-0.379-0.854-0.712-1.285-1.017l-0.274-0.195c-0.112-0.08-0.139-0.236-0.059-0.349c0.08-0.112,0.236-0.137,0.349-0.059 l0.273,0.194c0.445,0.314,0.878,0.658,1.325,1.049c0.104,0.091,0.114,0.249,0.023,0.353C41.878,54.675,41.809,54.704,41.74,54.704z"></path></g><path fill="#472b29" d="M51.999,27.4C64.461,27.4,74.6,37.538,74.6,49.999C74.6,62.461,64.461,72.6,51.999,72.6	C39.538,72.6,29.4,62.462,29.4,50S39.538,27.4,51.999,27.4 M51.999,26C38.765,26,28,36.766,28,50s10.765,24,23.999,24	C65.234,74,76,63.233,76,49.999S65.234,26,51.999,26L51.999,26z"></path><g><path fill="#fdfcef" d="M36.5,73.5c0,0,1.567,0,3.5,0s3.5-1.567,3.5-3.5c0-1.781-1.335-3.234-3.055-3.455 C40.473,66.366,40.5,66.187,40.5,66c0-1.933-1.567-3.5-3.5-3.5c-1.032,0-1.95,0.455-2.59,1.165 c-0.384-1.808-1.987-3.165-3.91-3.165c-2.209,0-4,1.791-4,4c0,0.191,0.03,0.374,0.056,0.558C26.128,64.714,25.592,64.5,25,64.5 c-1.228,0-2.245,0.887-2.455,2.055C22.366,66.527,22.187,66.5,22,66.5c-1.933,0-3.5,1.567-3.5,3.5s1.567,3.5,3.5,3.5s7.5,0,7.5,0 V74h7V73.5z"></path><path fill="#472b29" d="M38.25,69C38.112,69,38,68.888,38,68.75c0-1.223,0.995-2.218,2.218-2.218 c0.034,0.009,0.737-0.001,1.244,0.136c0.133,0.036,0.212,0.173,0.176,0.306c-0.036,0.134-0.173,0.213-0.306,0.176 c-0.444-0.12-1.1-0.12-1.113-0.118c-0.948,0-1.719,0.771-1.719,1.718C38.5,68.888,38.388,69,38.25,69z"></path><circle cx="31.5" cy="73.5" r=".5" fill="#472b29"></circle><path fill="#472b29" d="M40,74h-3.5c-0.276,0-0.5-0.224-0.5-0.5s0.224-0.5,0.5-0.5H40c1.654,0,3-1.346,3-3 c0-1.496-1.125-2.768-2.618-2.959c-0.134-0.018-0.255-0.088-0.336-0.196s-0.115-0.244-0.094-0.377C39.975,66.314,40,66.16,40,66 c0-1.654-1.346-3-3-3c-0.85,0-1.638,0.355-2.219,1c-0.125,0.139-0.321,0.198-0.5,0.148c-0.182-0.049-0.321-0.195-0.36-0.379 C33.58,62.165,32.141,61,30.5,61c-1.93,0-3.5,1.57-3.5,3.5c0,0.143,0.021,0.28,0.041,0.418c0.029,0.203-0.063,0.438-0.242,0.54 c-0.179,0.102-0.396,0.118-0.556-0.01C25.878,65.155,25.449,65,25,65c-0.966,0-1.792,0.691-1.963,1.644 c-0.048,0.267-0.296,0.446-0.569,0.405C22.314,67.025,22.16,67,22,67c-1.654,0-3,1.346-3,3s1.346,3,3,3h7.5 c0.276,0,0.5,0.224,0.5,0.5S29.776,74,29.5,74H22c-2.206,0-4-1.794-4-4s1.794-4,4-4c0.059,0,0.116,0.002,0.174,0.006 C22.588,64.82,23.711,64,25,64c0.349,0,0.689,0.061,1.011,0.18C26.176,61.847,28.126,60,30.5,60c1.831,0,3.466,1.127,4.153,2.774 C35.333,62.276,36.155,62,37,62c2.206,0,4,1.794,4,4c0,0.048-0.001,0.095-0.004,0.142C42.739,66.59,44,68.169,44,70 C44,72.206,42.206,74,40,74z"></path><path fill="#472b29" d="M34.5,73c-0.159,0-0.841,0-1,0c-0.276,0-0.5,0.224-0.5,0.5c0,0.276,0.224,0.5,0.5,0.5 c0.159,0,0.841,0,1,0c0.276,0,0.5-0.224,0.5-0.5C35,73.224,34.776,73,34.5,73z"></path></g>
</svg>