<svg xmlns="http://www.w3.org/2000/svg" x="0px" y="0px" width="100" height="100" viewBox="0 0 48 48">
<path d="M41,8H7C6.447,8,6,8.448,6,9v32c0,1.654,1.346,3,3,3h30c1.654,0,3-1.346,3-3V9C42,8.448,41.553,8,41,8z"></path><path fill="#fff" d="M39,41H9c-1.105,0-2-0.895-2-2V7h34v32C41,40.105,40.105,41,39,41z"></path><path d="M39,42H9c-1.654,0-3-1.346-3-3V7c0-0.553,0.448-1,1-1h34c0.552,0,1,0.447,1,1v32C42,40.654,40.654,42,39,42z M8,8v31	c0,0.552,0.449,1,1,1h30c0.551,0,1-0.448,1-1V8H8z"></path><polygon points="26.837,23 15,23 15,25.72 19.246,25.72 19.246,38 22.609,38 22.609,25.72 26.837,25.72"></polygon><path d="M37.283,26.403c0,0-1.595-0.993-3.398-0.993c-1.803,0-2.452,0.8-2.452,1.655c0,2.207,6.588,1.986,6.588,6.427 c0,6.841-10.044,3.807-10.044,3.807v-3.282c0,0,1.921,1.352,4.224,1.352s2.216-1.407,2.216-1.6c0-2.041-6.529-2.041-6.529-6.565 c0-6.151,9.512-3.724,9.512-3.724L37.283,26.403z"></path>
</svg>